<?xml version="1.0" encoding="utf-8"?>
<!-- Generator: Adobe Illustrator 17.0.0, SVG Export Plug-In . SVG Version: 6.00 Build 0)  -->
<!DOCTYPE svg PUBLIC "-//W3C//DTD SVG 1.1//EN" "http://www.w3.org/Graphics/SVG/1.1/DTD/svg11.dtd">
<svg version="1.1" id="Layer_1" xmlns="http://www.w3.org/2000/svg" xmlns:xlink="http://www.w3.org/1999/xlink" x="0px" y="0px"
	 width="822px" height="906px" viewBox="0 0 822 906" enable-background="new 0 0 822 906" xml:space="preserve">
<g>
	<g>
		<path fill="#0A5C2F" stroke="#006838" stroke-miterlimit="10" d="M150.001,733.229c0.126,3.313,1.188,7.282,5.866,7.51
			c0,0.404,0,0.759,0,1.138c-2.351-0.202-4.526-1.087-5.967-2.907c0.354,4.5-2.781,7.509-6.827,9.001
			c3.085-2.983,4.248-2.908,4.248-11.909c0-6.245-0.025-13.35-0.025-14.311c0-0.683-0.177-1.643-1.415-1.643
			c-0.304,0-0.936,0.177-1.062-0.253c-0.051-0.101,0-0.202,0.126-0.253c2.225,0,4.45-0.05,6.624-0.05
			c0.43,0,0.455,0.101,0.455,0.252c0,0.329-0.304,0.178-0.986,0.329c-0.885,0.202-1.037,0.632-1.037,1.542c0,1.871,0,2.857,0,6.119
			C150.001,729.588,150.001,731.408,150.001,733.229z M150.86,714.064c0,1.239-0.986,2.226-2.225,2.226
			c-1.264,0-2.225-0.986-2.225-2.226c0-1.189,0.961-2.225,2.225-2.225C149.874,711.839,150.86,712.875,150.86,714.064z"/>
		<path fill="#0A5C2F" stroke="#006838" stroke-miterlimit="10" d="M166.887,723.95c5.208,0,10.467,0.228,16.358-0.178
			c3.161-0.227,6.523-0.985,8.243-3.944c-0.733,1.441-2.377,5.411-6.372,6.423c-5.259,1.34-11.454,0.43-16.814,0.43
			c-4.399,0-8.394,0.227-8.394,5.688c0,3.793,2.099,7.535,5.891,8.369h32.136v1.138h-42.072v-1.138h6.245
			c-2.73-1.441-4.602-4.248-4.602-7.863C157.506,727.97,161.678,723.95,166.887,723.95z"/>
		<path fill="#0A5C2F" stroke="#006838" stroke-miterlimit="10" d="M197.923,740.739c1.037-0.025,2.048-0.379,2.983-0.961
			c2.706-1.694,2.908-4.955,2.908-7.94v-8.849c0-0.227,0-0.481,0-0.759c0-0.986-0.152-2.149-1.593-2.149
			c-0.885,0-0.936-0.025-0.936-0.253c0-0.101,0.05-0.151,0.152-0.202c2.225,0,4.45-0.051,6.624-0.051c0.329,0,0.48,0.076,0.48,0.253
			c0,0.506-2.022-0.277-2.022,1.871c0,0.835,0,5.36,0,6.094c0,6.599,0.252,13.375-8.597,14.083V740.739z M204.699,714.064
			c0,1.265-0.986,2.226-2.225,2.226c-1.188,0-2.225-0.961-2.225-2.226c0-1.238,1.037-2.225,2.225-2.225
			C203.713,711.839,204.699,712.825,204.699,714.064z M210.135,714.064c0,1.265-1.037,2.226-2.225,2.226
			c-1.239,0-2.225-0.961-2.225-2.226c0-1.238,0.986-2.225,2.225-2.225C209.098,711.839,210.135,712.825,210.135,714.064z"/>
		<path fill="#0A5C2F" stroke="#006838" stroke-miterlimit="10" d="M221.38,740.056c1.062,0.455,2.251,0.657,3.439,0.657
			c5.739,0,8.065-4.854,8.065-9.507c0-6.245-3.767-10.594-9.026-10.594c-0.809,0-1.644,0.102-2.478,0.329v-1.088
			c0.936-0.202,1.871-0.278,2.858-0.278c7.256,0,11.605,4.956,11.605,10.772c0,7.307-5.891,11.529-11.883,11.529
			c-0.859,0-1.719-0.076-2.579-0.253V740.056z"/>
		<path fill="#0A5C2F" stroke="#006838" stroke-miterlimit="10" d="M249.061,741.876c-8.395-0.683-8.597-6.826-8.597-13.097
			c0-2.377,0-14.463,0-18.002c0-1.341,0.025-2.149-0.455-2.579c-0.253-0.202-1.568-0.278-1.568-0.557
			c0-0.177,0.126-0.227,0.456-0.227c2.098,0,4.197,0,6.295,0c0.253,0,0.48,0,0.48,0.227c0,0.102-0.126,0.228-0.253,0.228
			c-1.77,0-2.2,0.48-2.2,1.643c0,6.094-0.05,17.698-0.05,22.351c0,3.691,0.505,8.52,5.891,8.9V741.876z"/>
		<path fill="#0A5C2F" stroke="#006838" stroke-miterlimit="10" d="M270.649,737.856c-1.34,2.504-4.298,4.021-7.206,4.021
			c-3.919-0.329-5.993-1.871-7.13-4.021c-1.138,2.149-3.262,3.742-7.256,4.021v-1.138c1.037,0,2.073-0.355,3.009-0.961
			c2.706-1.694,2.908-4.931,2.908-7.94v-9.684c0-0.505-0.051-1.365-0.531-1.795c-0.329-0.253-1.972-0.202-1.972-0.531
			c0-0.126,0-0.253,0.48-0.253h6.726c0.43,0,0.455,0.076,0.455,0.253c0,0.227-0.253,0.253-0.936,0.253
			c-1.416,0-1.567,0.81-1.567,1.518c0,0.101,0,3.515,0.025,10.239c0,3.768,0.935,8.9,5.79,8.9c4.93,0,5.866-5.031,5.866-8.9v-8.596
			c0-0.076,0-0.431-0.025-1.063c-0.025-0.657-0.076-1.087-0.177-1.314c-0.102-0.228-0.253-0.404-0.456-0.531
			c-0.683-0.379-1.972-0.177-1.82-0.506c0-0.126-0.025-0.253,0.455-0.253h6.726c0.329,0,0.48,0.076,0.48,0.253
			c0,0.227-0.329,0.253-0.935,0.253c-1.189,0-1.517,0.633-1.517,1.618c0,2.099-0.05,3.389-0.05,10.139
			c0,2.984,0.202,6.245,2.907,7.94c0.986,0.606,1.922,0.961,3.009,0.961c4.931,0,5.891-4.956,5.891-8.9
			c-0.025-6.473-0.05-9.835-0.076-10.063c0-0.227-0.126-0.582-0.379-1.037c-0.253-0.455-0.632-0.683-1.112-0.657
			c-0.936,0.025-0.961-0.126-0.961-0.303c0-0.102,0.051-0.152,0.152-0.152c2.225,0,4.425-0.051,6.625-0.051
			c0.329,0,0.48,0.076,0.48,0.253c0,0.531-2.023-0.277-2.023,1.871v7.813c0,5.968-0.48,12.364-8.597,12.364
			C273.911,741.876,271.813,740.031,270.649,737.856z M270.22,714.064c0,1.265-0.986,2.226-2.225,2.226
			c-1.189,0-2.225-0.961-2.225-2.226c0-1.238,1.037-2.225,2.225-2.225C269.233,711.839,270.22,712.825,270.22,714.064z
			 M272.925,709.538c0,1.264-0.986,2.225-2.225,2.225c-1.189,0-2.225-0.961-2.225-2.225c0-1.239,1.037-2.225,2.225-2.225
			C271.939,707.314,272.925,708.299,272.925,709.538z M275.656,714.064c0,1.265-1.037,2.226-2.225,2.226
			c-1.239,0-2.225-0.961-2.225-2.226c0-1.238,0.986-2.225,2.225-2.225C274.619,711.839,275.656,712.825,275.656,714.064z"/>
		<path fill="#0A5C2F" stroke="#006838" stroke-miterlimit="10" d="M295.467,734.089c0,3.311-0.152,6.169-0.48,7.408
			c-0.784,3.009-3.161,5.41-6.422,6.473c3.135-2.528,4.197-3.818,4.197-11.909c0-7.989,0.051-12.49,0.051-13.754
			c0-0.835-0.202-2.175-1.29-2.175c-0.152-0.076-1.239,0.076-1.239-0.329c0-0.101,0-0.151,0.101-0.202
			c2.174,0,4.425-0.05,6.624-0.05c0.43,0,0.456,0.101,0.456,0.228c0,0.227-0.152,0.252-0.304,0.252
			c-1.416,0-1.719,0.911-1.719,2.226c0,1.517,0,2.63,0,5.537C295.441,729.866,295.467,732.066,295.467,734.089z"/>
		<path fill="#0A5C2F" stroke="#006838" stroke-miterlimit="10" d="M298.903,730.145c-0.152-6.447,0.076-12.92-0.025-19.367
			c-0.025-1.594,0.151-2.832-1.82-2.908c-0.152,0-0.228-0.076-0.228-0.151c0-0.127,0.177-0.304,0.48-0.304c2.099,0,4.197,0,6.296,0
			c0.278,0,0.455,0.151,0.455,0.304c0,0.075-0.076,0.151-0.228,0.151c-1.264,0.051-2.124,0.102-2.225,1.643
			c-0.126,6.877-0.05,13.754-0.05,20.632H298.903z M297.993,752.647c0.405-0.834,1.189-1.44,2.074-1.719
			c-1.543-0.354-2.427-1.771-2.427-3.313c0-1.922,1.643-3.413,3.54-3.413c1.037,0,3.084,0,4.222,0c1.644,0,4.172,0.202,5.234-1.593
			c-0.354,0.531-0.859,2.073-2.427,2.478c-1.315,0.354-5.588,0.102-8.091,0.202c-1.112,0-1.593,1.315-1.593,2.099
			c0,1.467,0.784,2.933,2.275,3.236h10.139v0.455h-9.633C300.066,751.079,299.004,751.889,297.993,752.647z M299.004,732.85h2.554
			c0.126,3.515,1.037,7.914,5.916,7.914c5.36,0,5.891-5.184,5.891-8.9c0-4.602,0-14.791,0-21.086c0-2.352-0.101-2.908-2.275-2.908
			c-0.101,0-0.227-0.126-0.227-0.228c0-0.227,0.227-0.227,0.48-0.227c2.099,0,4.197,0,6.296,0c0.329,0,0.455,0.051,0.455,0.227
			c0,0.304-1.265,0.278-1.568,0.557c-0.48,0.43-0.455,1.238-0.455,2.579c0,4.424,0,14.74,0,18.002
			c0,6.271-0.177,13.097-8.597,13.097C300.9,741.876,299.358,737.477,299.004,732.85z"/>
		<path fill="#0A5C2F" stroke="#006838" stroke-miterlimit="10" d="M322.967,709.538c-0.051-1.29-0.582-1.618-1.77-1.644
			c-0.177,0-0.228-0.076-0.228-0.151c0-0.127,0.177-0.304,0.455-0.304c2.099,0,4.197,0,6.296,0c0.278,0,0.455,0.177,0.455,0.304
			c0,0.075-0.076,0.151-0.228,0.151c-1.264,0.025-2.124,0.102-2.2,1.644c-0.152,2.554-0.101,5.158-0.051,28.95
			c0,2.756,0.556,2.882,2.25,2.907c0.151,0.025,0.228,0.076,0.228,0.177c0,0.127-0.177,0.304-0.455,0.304c-2.099,0-4.197,0-6.296,0
			c-0.278,0-0.455-0.177-0.455-0.304c0-0.101,0.051-0.151,0.228-0.177c1.542-0.051,1.745-0.708,1.795-2.199L322.967,709.538z"/>
		<path fill="#0A5C2F" stroke="#006838" stroke-miterlimit="10" d="M342.306,741.876c-8.748,0-11.555-6.726-11.555-11.176
			c0-6.295,5.006-11.125,11.707-11.125c1.643,0,3.211,0.253,4.602,0.708c7.155,2.732,7.054,7.99,7.054,14.059
			c0,2.326,0.076,4.904-0.48,7.181c-0.708,2.831-4.627,6.7-6.068,6.018c3.414-1.896,3.843-6.423,3.843-9.685
			C349.107,740.46,345.896,741.876,342.306,741.876z M343.115,740.688c0.43,0,0.935-0.051,1.517-0.1
			c1.947-0.354,6.473-1.973,6.473-9.532c0-6.852-4.273-10.392-8.799-10.392c-4.981,0-8.496,3.06-8.496,9.254
			C333.811,736.617,337.705,740.688,343.115,740.688z"/>
		<path fill="#0A5C2F" stroke="#006838" stroke-miterlimit="10" d="M373.977,741.876c-5.866,0-11.226-4.602-11.226-11.631
			c0-1.315,0.228-2.604,0.657-3.792h3.11c-0.531,1.391-0.809,2.983-0.809,4.627c0,4.778,2.377,9.658,8.268,9.658h14.513
			c-4.374-2.175-6.093-6.447-6.093-10.038c0-3.236,1.846-11.149,11.707-11.149c6.396,0,11.63,3.843,11.63,10.669
			c0,5.841-4.121,11.303-11.125,11.605v0.051H373.977z M394.76,740.688c4.223,0,7.99-2.882,7.99-9.633
			c0-6.169-3.742-10.468-8.799-10.468c-5.031,0-8.495,3.211-8.495,9.33C385.456,737.249,390.083,740.688,394.76,740.688z
			 M396.328,714.064c0,1.239-0.986,2.226-2.225,2.226c-1.264,0-2.225-0.986-2.225-2.226c0-1.189,0.961-2.225,2.225-2.225
			C395.342,711.839,396.328,712.875,396.328,714.064z"/>
		<path fill="#0A5C2F" stroke="#006838" stroke-miterlimit="10" d="M418.944,741.876c-8.395-0.683-8.597-6.826-8.597-13.097
			c0-2.377,0-14.463,0-18.002c0-1.341,0.025-2.149-0.455-2.579c-0.253-0.202-1.567-0.278-1.567-0.557
			c0-0.177,0.126-0.227,0.455-0.227c2.099,0,4.197,0,6.296,0c0.252,0,0.48,0,0.48,0.227c0,0.102-0.126,0.228-0.252,0.228
			c-1.77,0-2.2,0.48-2.2,1.643c0,6.094-0.051,17.698-0.051,22.351c0,3.691,0.506,8.52,5.892,8.9V741.876z"/>
		<path fill="#0A5C2F" stroke="#006838" stroke-miterlimit="10" d="M418.94,740.739h7.181c-4.374-2.175-6.094-6.447-6.094-10.038
			c0-0.783,0.102-1.618,0.304-2.427c0.455-1.871,2.68-8.723,11.403-8.723c6.396,0,11.63,3.843,11.63,10.669
			c0,5.841-4.121,11.303-11.125,11.605v0.051H418.94V740.739z M432.392,740.688c4.223,0,7.989-2.882,7.989-9.633
			c0-6.169-3.742-10.468-8.799-10.468c-5.031,0-8.495,3.211-8.495,9.33C423.087,737.249,427.714,740.688,432.392,740.688z
			 M431.305,714.064c0,1.265-0.986,2.226-2.226,2.226c-1.189,0-2.225-0.961-2.225-2.226c0-1.238,1.036-2.225,2.225-2.225
			C430.318,711.839,431.305,712.825,431.305,714.064z M436.74,714.064c0,1.265-1.037,2.226-2.225,2.226
			c-1.239,0-2.226-0.961-2.226-2.226c0-1.238,0.986-2.225,2.226-2.225C435.703,711.839,436.74,712.825,436.74,714.064z"/>
		<path fill="#0A5C2F" stroke="#006838" stroke-miterlimit="10" d="M457.466,741.876c-8.748,0-11.555-6.726-11.555-11.176
			c0-6.295,5.006-11.125,11.706-11.125c1.643,0,3.211,0.253,4.602,0.708c7.155,2.732,7.055,7.99,7.055,14.059
			c0,2.326,0.076,4.904-0.48,7.181c-0.708,2.831-4.627,6.7-6.068,6.018c3.413-1.896,3.844-6.423,3.844-9.685
			C464.268,740.46,461.056,741.876,457.466,741.876z M458.274,740.688c0.431,0,0.936-0.051,1.518-0.1
			c1.946-0.354,6.473-1.973,6.473-9.532c0-6.852-4.273-10.392-8.799-10.392c-4.98,0-8.495,3.06-8.495,9.254
			C448.971,736.617,452.864,740.688,458.274,740.688z"/>
		<path fill="#0A5C2F" stroke="#006838" stroke-miterlimit="10" d="M467.471,714.873c0.404-0.835,1.188-1.441,2.073-1.72
			c-1.543-0.354-2.428-1.77-2.428-3.312c0-1.922,1.643-3.414,3.54-3.414h4.223c1.644,0,4.172,0.202,5.233-1.593
			c-0.354,0.531-0.859,2.073-2.427,2.479c-1.315,0.353-5.588,0.101-8.091,0.202c-1.113,0-1.594,1.314-1.594,2.099
			c0,1.466,0.784,2.933,2.276,3.236h10.139v0.455h-9.634C469.544,713.306,468.481,714.115,467.471,714.873z M474.651,730.145
			c-0.025-0.885-0.025-1.34-0.025-1.391c0-0.051,0.025-3.591,0.051-10.619c0-2.781,0.556-2.832,2.25-2.908
			c0.151,0,0.228-0.05,0.228-0.151c0-0.127-0.177-0.304-0.455-0.304h-6.296c-0.278,0-0.455,0.177-0.455,0.304
			c0,0.102,0.076,0.151,0.228,0.151c1.669,0.076,1.795,0.986,1.795,2.275c-0.025,7.636-0.025,11.454-0.025,11.454
			s0,0.404,0.025,1.188H474.651z M489.139,728.779v-18.002c0-1.341-0.025-2.149,0.455-2.579c0.304-0.278,1.567-0.253,1.567-0.557
			c0-0.177-0.126-0.227-0.455-0.227h-6.296c-0.252,0-0.479,0-0.479,0.227c0,0.102,0.126,0.228,0.228,0.228
			c2.174,0,2.275,0.557,2.275,2.908v21.086c0,3.717-0.531,8.9-5.892,8.9c-4.88,0-5.79-4.399-5.916-7.914h-2.554
			c0.354,4.627,1.897,9.026,8.47,9.026C488.962,741.876,489.139,735.05,489.139,728.779z"/>
		<path fill="#0A5C2F" stroke="#006838" stroke-miterlimit="10" d="M496.035,709.538c-0.051-1.29-0.582-1.618-1.77-1.644
			c-0.178,0-0.228-0.076-0.228-0.151c0-0.127,0.177-0.304,0.455-0.304c2.098,0,4.196,0,6.295,0c0.278,0,0.455,0.177,0.455,0.304
			c0,0.075-0.075,0.151-0.228,0.151c-1.264,0.025-2.123,0.102-2.199,1.644c-0.151,2.554-0.102,5.158-0.051,28.95
			c0,2.756,0.557,2.882,2.25,2.907c0.152,0.025,0.228,0.076,0.228,0.177c0,0.127-0.177,0.304-0.455,0.304c-2.099,0-4.197,0-6.295,0
			c-0.278,0-0.455-0.177-0.455-0.304c0-0.101,0.05-0.151,0.228-0.177c1.542-0.051,1.744-0.708,1.795-2.199L496.035,709.538z"/>
		<path fill="#0A5C2F" stroke="#006838" stroke-miterlimit="10" d="M541.944,740.739c1.037-0.051,2.049-0.355,3.009-0.961
			c2.681-1.669,2.883-4.955,2.883-7.94c0-1.997,0-9.228,0-9.582c0-1.34-0.202-2.175-1.542-2.175c-0.708,0-0.935-0.051-0.935-0.253
			c0-0.177,0.1-0.253,0.455-0.253h6.75c0.48,0,0.456,0.127,0.456,0.253c0,0.278-0.304,0.329-0.658,0.329
			c-0.202,0-0.404-0.025-0.581-0.025c-1.138,0-1.239,1.214-1.239,2.326v9.38c0,2.984,0.202,6.245,2.908,7.94
			c0.91,0.582,1.921,0.935,2.983,0.961v1.138c-3.919-0.304-6.094-1.846-7.232-4.021c-1.138,2.175-3.262,3.717-7.257,4.021h-20.809
			c-5.814,0-11.226-4.652-11.226-11.631c0-1.315,0.253-2.604,0.708-3.792h3.109c-0.53,1.416-0.809,3.059-0.809,4.727
			c0,4.779,2.352,9.558,8.217,9.558H541.944z M532.868,746.124c0,1.264-0.986,2.225-2.226,2.225c-1.238,0-2.225-0.961-2.225-2.225
			c0-1.239,0.986-2.226,2.225-2.226C531.882,743.899,532.868,744.885,532.868,746.124z"/>
		<path fill="#0A5C2F" stroke="#006838" stroke-miterlimit="10" d="M564.965,731.838c0,3.085,0.202,6.245,2.907,7.94
			c0.936,0.606,1.973,0.935,3.009,0.961v1.138c-3.944-0.304-6.067-1.846-7.256-4.021c-1.138,2.175-3.262,3.717-7.206,4.021v-1.138
			c5.107-0.253,5.815-5.36,5.866-8.976c0-0.102,0-9.406,0-9.507c0-1.239-0.152-2.175-1.568-2.175c-0.53,0-0.936-0.075-0.936-0.253
			c0-0.202,0.228-0.253,0.48-0.253h6.776c0.379,0,0.48,0.127,0.48,0.253c0,0.253-0.834,0.253-0.935,0.253
			c-1.441,0-1.567,1.012-1.567,1.871C565.016,722.129,565.016,722.307,564.965,731.838z M560.97,711.839
			c-1.188,0-2.225,0.986-2.225,2.225c0,1.265,1.036,2.226,2.225,2.226c1.239,0,2.226-0.961,2.226-2.226
			C563.195,712.825,562.209,711.839,560.97,711.839z M566.406,711.839c-1.239,0-2.226,0.986-2.226,2.225
			c0,1.265,0.986,2.226,2.226,2.226c1.188,0,2.225-0.961,2.225-2.226C568.631,712.825,567.595,711.839,566.406,711.839z"/>
		<path fill="#0A5C2F" stroke="#006838" stroke-miterlimit="10" d="M633.329,741.876c-3.009-0.253-4.931-1.189-6.22-2.528
			c-1.088,1.567-2.301,2.225-5.031,2.528h-51.2v-1.138h50.593c3.11-0.151,4.981-2.731,4.981-4.046c0-3.641-6.498-4.045-9.356-4.096
			c0,0-17.471,0.304-31.959,0.304c-3.894,0-7.964-0.506-10.113-3.591c-0.683-1.138-1.087-2.199-1.087-3.211
			c0-1.365,0.657-2.705,1.795-3.894c3.768-3.893,12.566-2.705,17.926-2.705c4.223,0,10.316,0.278,12.845-4.071
			c-0.733,1.442-2.326,5.411-6.372,6.423c-2.933,0.758-5.992,0.53-9.405,0.53c-2.629,0-5.284-0.353-7.964-0.353
			c-1.391,0-2.781,0.1-4.172,0.379c-2.023,0.43-3.515,2.226-3.515,3.844c0,2.452,3.236,3.994,6.271,4.349
			c2.907,0.051,5.84,0.051,8.773,0.051c8.773,0,17.623-0.127,26.75-0.127c3.944,0,9.785,0.708,10.923,5.563
			c0.632,2.73,2.68,4.45,5.537,4.652V741.876z"/>
		<path fill="#0A5C2F" stroke="#006838" stroke-miterlimit="10" d="M650.908,719.551c7.231,0,11.453,4.424,11.655,10.72
			c0,6.853-5.259,11.606-11.857,11.606c-4.652,0-8.243-2.175-10.038-5.486c-1.087,3.464-4.045,5.233-7.357,5.486v-1.138
			c1.037-0.051,2.073-0.355,3.009-0.936c3.06-1.896,2.907-6.018,2.907-9.128C639.227,725.088,643.601,719.551,650.908,719.551z
			 M651.944,740.713c2.377,0,7.56-1.467,7.56-9.658c0-7.257-4.425-10.417-8.799-10.417c-4.854,0-8.445,3.085-8.445,9.279
			C642.261,737.073,646.585,740.713,651.944,740.713z"/>
	</g>
	<g>
		<path fill="#0A5C2F" d="M412.276,433.935c0-0.001,0-1.884,0-4.838c2.186-0.779,3.762-2.845,3.762-5.299
			c0-2.454-1.576-4.521-3.762-5.299c0-1.903,0-3.873,0-5.848c3.314-0.843,5.778-3.823,5.778-7.401c0-3.578-2.464-6.557-5.778-7.4
			c0-3.455,0-5.95,0-6.712h3.358v-6.042c14.21-0.067,29.645-9.947,32.813-24.41c0.088-0.403-1.049,0.695-0.977,0.292
			c-5.574,9.563-18.331,13.42-29.726,10.924c-14.14-3.098-23.091-17.071-19.995-31.21c1.675-7.644,6.54-13.746,12.878-17.274
			c-12.262,1.937-22.681,11.144-25.498,24.003c-3.393,15.488,5.43,30.784,20.02,35.906v7.81h2.822v6.879
			c-3.039,1.017-5.242,3.853-5.242,7.233c0,3.381,2.203,6.218,5.242,7.234v6.233c-1.9,0.909-3.227,2.833-3.227,5.081
			c0,2.247,1.326,4.172,3.227,5.082v4.999"/>
		<g>
			<polyline fill="none" stroke="#0A5C2F" stroke-width="2" stroke-miterlimit="10" points="615.399,510.367 615.399,465.37 
				610.26,465.37 603.561,472.247 535.241,472.247 528.278,465.392 523.406,465.37 523.406,505.866 			"/>
			<polyline fill="none" stroke="#0A5C2F" stroke-width="2" stroke-miterlimit="10" points="606.591,469.394 606.591,389.818 
				531.839,389.818 531.839,468.179 			"/>
			<path fill="none" stroke="#0A5C2F" stroke-width="2" stroke-miterlimit="10" d="M611.806,359.649v21.352
				c0,0-5.215,2.233-5.215,8.452"/>
			<path fill="none" stroke="#0A5C2F" stroke-width="2" stroke-miterlimit="10" d="M531.839,389.356c0,0-0.522-7.013-4.857-8.09
				v-21.618"/>
			<path fill="none" stroke="#0A5C2F" stroke-width="2" stroke-miterlimit="10" d="M611.806,336.883v22.889h-84.824v-22.889
				c0,0,2.878-0.435,3.638,0c1.461,0.837,2.756,5.589,2.756,5.589h4.14c0,0,1.722-4.77,3.259-5.589c0.695-0.371,2.6-0.415,3.262,0
				c1.471,0.924,3.385,5.589,3.385,5.589h3.39c0,0,1.829-4.773,3.384-5.589c0.724-0.38,2.662-0.381,3.386,0
				c1.55,0.816,3.355,5.589,3.355,5.589h3.289c0,0,1.935-4.776,3.509-5.589c0.73-0.375,2.666-0.385,3.387,0
				c1.537,0.819,3.26,5.589,3.26,5.589h3.389c0,0,1.83-4.773,3.385-5.589c0.751-0.395,2.762-0.399,3.509,0
				c1.535,0.82,3.261,5.589,3.261,5.589h3.636c0,0,1.724-4.77,3.26-5.589c0.747-0.399,2.765-0.399,3.514,0
				c1.533,0.82,3.258,5.589,3.258,5.589h3.136c0,0,1.733-4.65,3.308-5.462c0.7-0.361,3.467-0.126,3.467-0.126H611.806z"/>
			<path fill="none" stroke="#0A5C2F" stroke-width="2" stroke-miterlimit="10" d="M530.505,268.108v-30.541
				c0,0,2.618-0.383,3.311,0c1.328,0.738,2.508,4.929,2.508,4.929h3.766c0,0,1.567-4.206,2.965-4.929
				c0.633-0.328,2.366-0.367,2.971,0c1.337,0.816,3.077,4.929,3.077,4.929h3.086c0,0,1.664-4.209,3.08-4.929
				c0.657-0.335,2.421-0.336,3.079,0c1.412,0.72,3.055,4.929,3.055,4.929h2.993c0,0,1.759-4.212,3.192-4.929
				c0.662-0.331,2.426-0.34,3.081,0c1.397,0.723,2.967,4.929,2.967,4.929h3.084c0,0,1.663-4.209,3.079-4.929
				c0.686-0.348,2.514-0.352,3.193,0c1.396,0.723,2.968,4.929,2.968,4.929h1.971h1.337c0,0,1.568-4.206,2.968-4.929
				c0.679-0.351,2.515-0.352,3.196,0c1.396,0.723,2.966,4.929,2.966,4.929h2.852c0,0,1.577-4.101,3.009-4.817
				c0.639-0.318,3.156-0.111,3.156-0.111h0.278v30.541"/>
			<polyline fill="none" stroke="#0A5C2F" stroke-width="2" stroke-miterlimit="10" points="535.872,342.24 535.872,284.779 
				602.324,284.779 602.324,342.367 			"/>
			
				<line fill="none" stroke="#0A5C2F" stroke-width="2" stroke-miterlimit="10" x1="600.952" y1="273.602" x2="600.952" y2="284.779"/>
			
				<line fill="none" stroke="#0A5C2F" stroke-width="2" stroke-miterlimit="10" x1="593.94" y1="273.602" x2="593.94" y2="284.779"/>
			
				<line fill="none" stroke="#0A5C2F" stroke-width="2" stroke-miterlimit="10" x1="586.93" y1="273.602" x2="586.93" y2="284.779"/>
			
				<line fill="none" stroke="#0A5C2F" stroke-width="2" stroke-miterlimit="10" x1="579.919" y1="273.602" x2="579.919" y2="284.779"/>
			
				<line fill="none" stroke="#0A5C2F" stroke-width="2" stroke-miterlimit="10" x1="572.908" y1="273.602" x2="572.908" y2="284.779"/>
			
				<line fill="none" stroke="#0A5C2F" stroke-width="2" stroke-miterlimit="10" x1="565.896" y1="273.602" x2="565.896" y2="284.779"/>
			
				<line fill="none" stroke="#0A5C2F" stroke-width="2" stroke-miterlimit="10" x1="558.886" y1="273.602" x2="558.886" y2="284.779"/>
			
				<line fill="none" stroke="#0A5C2F" stroke-width="2" stroke-miterlimit="10" x1="551.875" y1="273.602" x2="551.875" y2="284.779"/>
			
				<line fill="none" stroke="#0A5C2F" stroke-width="2" stroke-miterlimit="10" x1="544.864" y1="273.602" x2="544.864" y2="284.779"/>
			
				<line fill="none" stroke="#0A5C2F" stroke-width="2" stroke-miterlimit="10" x1="537.854" y1="273.602" x2="537.854" y2="284.779"/>
			<path fill="none" stroke="#0A5C2F" stroke-width="2" stroke-miterlimit="10" d="M593.838,284.779"/>
			<path fill="none" stroke="#0A5C2F" stroke-width="2" stroke-miterlimit="10" d="M593.838,273.602"/>
			<path fill="none" stroke="#0A5C2F" stroke-width="2" stroke-miterlimit="10" d="M589.563,284.779"/>
			<path fill="none" stroke="#0A5C2F" stroke-width="2" stroke-miterlimit="10" d="M589.563,273.602"/>
			<path fill="none" stroke="#0A5C2F" stroke-width="2" stroke-miterlimit="10" d="M585.743,284.779"/>
			<path fill="none" stroke="#0A5C2F" stroke-width="2" stroke-miterlimit="10" d="M585.743,273.602"/>
			<path fill="none" stroke="#0A5C2F" stroke-width="2" stroke-miterlimit="10" d="M581.621,273.602"/>
			<path fill="none" stroke="#0A5C2F" stroke-width="2" stroke-miterlimit="10" d="M581.621,284.779"/>
			<path fill="none" stroke="#0A5C2F" stroke-width="2" stroke-miterlimit="10" d="M581.621,273.602"/>
			<path fill="none" stroke="#0A5C2F" stroke-width="2" stroke-miterlimit="10" d="M577.192,284.779"/>
			<path fill="none" stroke="#0A5C2F" stroke-width="2" stroke-miterlimit="10" d="M577.192,273.602"/>
			<path fill="none" stroke="#0A5C2F" stroke-width="2" stroke-miterlimit="10" d="M573.067,284.779"/>
			<path fill="none" stroke="#0A5C2F" stroke-width="2" stroke-miterlimit="10" d="M573.067,273.602"/>
			<path fill="none" stroke="#0A5C2F" stroke-width="2" stroke-miterlimit="10" d="M569.21,284.779"/>
			<path fill="none" stroke="#0A5C2F" stroke-width="2" stroke-miterlimit="10" d="M569.098,273.602"/>
			<path fill="none" stroke="#0A5C2F" stroke-width="2" stroke-miterlimit="10" d="M565.089,284.779"/>
			<path fill="none" stroke="#0A5C2F" stroke-width="2" stroke-miterlimit="10" d="M565.089,273.602"/>
			<path fill="none" stroke="#0A5C2F" stroke-width="2" stroke-miterlimit="10" d="M560.963,284.779"/>
			<path fill="none" stroke="#0A5C2F" stroke-width="2" stroke-miterlimit="10" d="M560.963,273.602"/>
			<path fill="none" stroke="#0A5C2F" stroke-width="2" stroke-miterlimit="10" d="M556.841,284.779"/>
			<path fill="none" stroke="#0A5C2F" stroke-width="2" stroke-miterlimit="10" d="M556.841,273.602"/>
			<path fill="none" stroke="#0A5C2F" stroke-width="2" stroke-miterlimit="10" d="M552.487,284.779"/>
			<path fill="none" stroke="#0A5C2F" stroke-width="2" stroke-miterlimit="10" d="M552.487,273.602"/>
			<path fill="none" stroke="#0A5C2F" stroke-width="2" stroke-miterlimit="10" d="M548.706,284.779"/>
			<path fill="none" stroke="#0A5C2F" stroke-width="2" stroke-miterlimit="10" d="M548.706,273.602"/>
			<path fill="none" stroke="#0A5C2F" stroke-width="2" stroke-miterlimit="10" d="M544.472,284.779"/>
			<path fill="none" stroke="#0A5C2F" stroke-width="2" stroke-miterlimit="10" d="M544.472,273.602"/>
			<path fill="none" stroke="#0A5C2F" stroke-width="2" stroke-miterlimit="10" d="M540.231,284.779"/>
			<path fill="none" stroke="#0A5C2F" stroke-width="2" stroke-miterlimit="10" d="M540.231,273.602"/>
			<path fill="none" stroke="#0A5C2F" stroke-width="2" stroke-miterlimit="10" d="M602.324,273.602"/>
			<polyline fill="none" stroke="#0A5C2F" stroke-width="2" stroke-miterlimit="10" points="535.872,284.779 532.29,284.779 
				532.29,273.602 602.324,273.602 606.516,273.602 606.516,284.779 602.324,284.779 			"/>
			<path fill="none" stroke="#0A5C2F" stroke-width="2" stroke-miterlimit="10" d="M535.872,273.602"/>
			<polyline fill="none" stroke="#0A5C2F" stroke-width="2" stroke-miterlimit="10" points="532.29,273.602 530.986,268.22 
				607.434,268.22 606.516,273.602 			"/>
			<path fill="none" stroke="#0A5C2F" stroke-width="2" stroke-miterlimit="10" d="M602.796,239.246"/>
			<polyline fill="none" stroke="#0A5C2F" stroke-width="2" stroke-miterlimit="10" points="596.804,239.371 596.9,206.249 
				542.042,206.249 542.042,238.152 			"/>
			<polyline fill="none" stroke="#0A5C2F" stroke-width="2" stroke-miterlimit="10" points="544.642,206.38 544.642,195.513 
				593.554,195.513 593.554,206.38 			"/>
			<polyline fill="none" stroke="#0A5C2F" stroke-width="1.5" stroke-miterlimit="10" points="548.706,194.417 548.706,195.383 
				548.706,184.515 589.563,184.515 589.563,195.383 589.563,194.417 			"/>
			<polyline fill="none" stroke="#0A5C2F" stroke-width="1.5" stroke-miterlimit="10" points="548.706,184.515 545.385,184.515 
				545.385,180.169 592.921,180.169 592.921,184.515 589.563,184.515 			"/>
			
				<line fill="none" stroke="#0A5C2F" stroke-width="2" stroke-miterlimit="10" x1="523.406" y1="482.902" x2="615.399" y2="482.902"/>
			
				<line fill="none" stroke="#0A5C2F" stroke-width="1.5" stroke-miterlimit="10" x1="523.735" y1="492.751" x2="614.373" y2="492.751"/>
			
				<line fill="none" stroke="#0A5C2F" stroke-width="1.5" stroke-miterlimit="10" x1="524.503" y1="497.616" x2="613.926" y2="497.616"/>
			
				<line fill="none" stroke="#0A5C2F" stroke-width="1.5" stroke-miterlimit="10" x1="524.503" y1="510.367" x2="613.926" y2="510.367"/>
			<path fill="none" stroke="#0A5C2F" stroke-width="2" stroke-miterlimit="10" d="M532.29,479.593"/>
			<path fill="none" stroke="#0A5C2F" stroke-width="2" stroke-miterlimit="10" d="M579.105,471.896V410.05v0.078
				c0-7.859-4.367-14.23-9.753-14.23c-5.385,0-9.75,6.371-9.75,14.23v-0.078v61.846"/>
			<path fill="none" stroke="#0A5C2F" stroke-width="1.5" stroke-miterlimit="10" d="M607.971,383.365v-13.82v0.05
				c0-5.163-2.203-6.789-4.919-6.789c-2.714,0-4.916,1.626-4.916,6.789v-0.05v15.563"/>
			<path fill="none" stroke="#0A5C2F" stroke-width="1.5" stroke-miterlimit="10" d="M594.445,380.671v-11.126v0.05
				c0-5.163-2.203-6.789-4.919-6.789c-2.713,0-4.915,1.626-4.915,6.789v-0.05v12.341"/>
			<path fill="none" stroke="#0A5C2F" stroke-width="1.5" stroke-miterlimit="10" d="M580.92,385.108v-15.563v0.05
				c0-5.163-2.203-6.789-4.918-6.789c-2.714,0-4.916,1.626-4.916,6.789v-0.05v11.126"/>
			<path fill="none" stroke="#0A5C2F" stroke-width="1.5" stroke-miterlimit="10" d="M567.395,380.671v-11.126v0.05
				c0-5.163-2.202-6.789-4.917-6.789c-2.715,0-4.917,1.626-4.917,6.789v-0.05v15.036"/>
			<path fill="none" stroke="#0A5C2F" stroke-width="1.5" stroke-miterlimit="10" d="M553.87,380.934v-11.39v0.05
				c0-5.163-2.202-6.789-4.918-6.789c-2.715,0-4.917,1.626-4.917,6.789v-0.05v11.39"/>
			<path fill="none" stroke="#0A5C2F" stroke-width="1.5" stroke-miterlimit="10" d="M540.345,385.796v-16.251v0.05
				c0-5.163-2.202-6.789-4.918-6.789c-2.714,0-4.917,1.626-4.917,6.789v-0.05v13.82"/>
			<path fill="none" stroke="#0A5C2F" stroke-width="1.5" stroke-miterlimit="10" d="M606.743,389.158v-3.747v0.036
				c0-3.713-1.38-4.882-3.083-4.882c-1.702,0-3.083,1.169-3.083,4.882v-0.036v3.747H606.743z"/>
			<path fill="none" stroke="#0A5C2F" stroke-width="1.5" stroke-miterlimit="10" d="M598.136,389.158v-3.747v0.036
				c0-3.713-1.38-4.882-3.083-4.882c-1.702,0-3.082,1.169-3.082,4.882v-0.036v3.747H598.136z"/>
			<path fill="none" stroke="#0A5C2F" stroke-width="1.5" stroke-miterlimit="10" d="M589.529,389.158v-3.747v0.036
				c0-3.713-1.38-4.882-3.083-4.882c-1.702,0-3.083,1.169-3.083,4.882v-0.036v3.747H589.529z"/>
			<path fill="none" stroke="#0A5C2F" stroke-width="1.5" stroke-miterlimit="10" d="M580.922,389.158v-3.747v0.036
				c0-3.713-1.38-4.882-3.083-4.882c-1.702,0-3.082,1.169-3.082,4.882v-0.036v3.747H580.922z"/>
			<path fill="none" stroke="#0A5C2F" stroke-width="1.5" stroke-miterlimit="10" d="M572.315,389.158v-3.747v0.036
				c0-3.713-1.381-4.882-3.084-4.882c-1.701,0-3.082,1.169-3.082,4.882v-0.036v3.747H572.315z"/>
			<path fill="none" stroke="#0A5C2F" stroke-width="1.5" stroke-miterlimit="10" d="M563.708,389.158v-3.747v0.036
				c0-3.713-1.38-4.882-3.083-4.882c-1.702,0-3.083,1.169-3.083,4.882v-0.036v3.747H563.708z"/>
			<path fill="none" stroke="#0A5C2F" stroke-width="1.5" stroke-miterlimit="10" d="M555.102,389.158v-3.747v0.036
				c0-3.713-1.381-4.882-3.084-4.882c-1.702,0-3.082,1.169-3.082,4.882v-0.036v3.747H555.102z"/>
			<path fill="none" stroke="#0A5C2F" stroke-width="1.5" stroke-miterlimit="10" d="M546.494,389.158v-3.747v0.036
				c0-3.713-1.38-4.882-3.083-4.882c-1.702,0-3.081,1.169-3.081,4.882v-0.036v3.747H546.494z"/>
			<path fill="none" stroke="#0A5C2F" stroke-width="1.5" stroke-miterlimit="10" d="M537.665,389.158v-3.747v0.036
				c0-3.713-1.379-4.882-3.082-4.882c-1.702,0-3.082,1.169-3.082,4.882v-0.036v3.747H537.665z"/>
			<path fill="none" stroke="#0A5C2F" stroke-width="2" stroke-miterlimit="10" d="M548.183,471.896V410.05v0.078
				c0-7.859-4.363-14.23-9.753-14.23c-2.315,0-4.445,1.18-6.121,3.153"/>
			<path fill="none" stroke="#0A5C2F" stroke-width="2" stroke-miterlimit="10" d="M590.716,471.896V410.05v0.078
				c0-7.859,4.365-14.23,9.754-14.23c2.315,0,4.444,1.18,6.121,3.153"/>
			<path fill="none" stroke="#0A5C2F" stroke-width="2" stroke-miterlimit="10" d="M577.151,341.573V304.87v0.07
				c0-7.058-3.92-12.779-8.759-12.779c-4.834,0-8.755,5.722-8.755,12.779v0.261v34.007"/>
			<path fill="none" stroke="#0A5C2F" stroke-width="2" stroke-miterlimit="10" d="M548.519,341.573V304.87v0.07
				c0-7.058-3.92-12.779-8.759-12.779c-2.079,0-2.688,0.405-4.193,2.177"/>
			<path fill="none" stroke="#0A5C2F" stroke-width="2" stroke-miterlimit="10" d="M588.195,341.573V304.87v0.07
				c0-7.058,3.92-12.779,8.759-12.779c2.079,0,3.992,1.06,5.497,2.832"/>
			<path fill="none" stroke="#0A5C2F" stroke-width="2" stroke-miterlimit="10" d="M551.477,410.05"/>
			<path fill="none" stroke="#0A5C2F" stroke-width="2" stroke-miterlimit="10" d="M553.285,472.576"/>
			<path fill="#0A5C2F" d="M587.284,241.929l3.512-1.048l0.532-3.143v-6.126v0.054c0-5.523-1.92-7.261-4.286-7.261
				c-2.368,0-4.287,1.738-4.287,7.261v-0.054v6.589"/>
			<polyline fill="none" stroke="#0A5C2F" stroke-width="1.5" stroke-miterlimit="10" points="580.337,237.413 580.337,219.065 
				593.524,219.065 593.524,237.892 			"/>
			<path fill="#0A5C2F" d="M569.164,237.081l2.79,2.912l1.597-0.313v-7.999v0.054c0-5.523-1.919-7.261-4.287-7.261
				c-2.366,0-4.287,1.738-4.287,7.261v-0.054v7.26"/>
			<polyline fill="none" stroke="#0A5C2F" stroke-width="1.5" stroke-miterlimit="10" points="562.732,242.593 562.732,219.065 
				575.92,219.065 575.92,242.593 			"/>
			<path fill="#0A5C2F" d="M550.77,242.496l3.143-4.018l2.361-0.276v-6.521v0.054c0-5.523-1.92-7.261-4.286-7.261
				c-2.368,0-4.287,1.738-4.287,7.261v-0.054v8.075"/>
			<polyline fill="none" stroke="#0A5C2F" stroke-width="1.5" stroke-miterlimit="10" points="545.281,237.892 545.281,219.065 
				558.47,219.065 558.47,237.892 			"/>
			
				<line fill="none" stroke="#0A5C2F" stroke-width="2" stroke-miterlimit="10" x1="585.012" y1="389.356" x2="585.012" y2="471.382"/>
			
				<line fill="none" stroke="#0A5C2F" stroke-width="2" stroke-miterlimit="10" x1="553.482" y1="389.356" x2="553.482" y2="471.382"/>
			
				<line fill="none" stroke="#0A5C2F" stroke-width="2" stroke-miterlimit="10" x1="583.201" y1="285.831" x2="583.201" y2="337.698"/>
			
				<line fill="none" stroke="#0A5C2F" stroke-width="2" stroke-miterlimit="10" x1="554.237" y1="284.945" x2="554.237" y2="336.813"/>
			<path fill="#0A5C2F" d="M591.649,181.648c0-16.444-10.095-28.295-22.552-28.295c-12.455,0-22.553,11.851-22.553,28.295"/>
			<path fill="none" stroke="#0A5C2F" stroke-width="2" stroke-miterlimit="10" d="M556.613,237.767"/>
			<path fill="none" stroke="#0A5C2F" stroke-width="2" stroke-miterlimit="10" d="M556.613,206.972"/>
			
				<line fill="none" stroke="#0A5C2F" stroke-width="2" stroke-miterlimit="10" x1="527.091" y1="354.89" x2="610.793" y2="354.89"/>
			<line fill="none" x1="594.297" y1="213.889" x2="596.002" y2="212.04"/>
			
				<line fill="none" stroke="#0A5C2F" stroke-width="1.5" stroke-miterlimit="10" x1="596.002" y1="212.04" x2="543.004" y2="212.04"/>
			
				<line fill="none" stroke="#0A5C2F" stroke-width="1.5" stroke-miterlimit="10" x1="549.198" y1="195.775" x2="549.172" y2="206.125"/>
			
				<line fill="none" stroke="#0A5C2F" stroke-width="1.5" stroke-miterlimit="10" x1="554.887" y1="195.793" x2="554.861" y2="206.144"/>
			
				<line fill="none" stroke="#0A5C2F" stroke-width="1.5" stroke-miterlimit="10" x1="560.576" y1="195.812" x2="560.55" y2="206.162"/>
			
				<line fill="none" stroke="#0A5C2F" stroke-width="1.5" stroke-miterlimit="10" x1="566.266" y1="195.831" x2="566.239" y2="205.181"/>
			
				<line fill="none" stroke="#0A5C2F" stroke-width="1.5" stroke-miterlimit="10" x1="571.954" y1="195.849" x2="571.93" y2="205.199"/>
			
				<line fill="none" stroke="#0A5C2F" stroke-width="1.5" stroke-miterlimit="10" x1="577.645" y1="195.868" x2="577.618" y2="205.219"/>
			
				<line fill="none" stroke="#0A5C2F" stroke-width="1.5" stroke-miterlimit="10" x1="583.334" y1="195.887" x2="583.308" y2="205.238"/>
			
				<line fill="none" stroke="#0A5C2F" stroke-width="1.5" stroke-miterlimit="10" x1="589.023" y1="195.906" x2="588.997" y2="205.256"/>
		</g>
		<polyline fill="none" stroke="#0A5C2F" stroke-width="2" stroke-miterlimit="10" points="296.643,510.655 296.643,465.656 
			291.504,465.656 284.806,472.534 216.486,472.534 209.523,465.679 204.651,465.656 204.651,506.152 		"/>
		<polyline fill="none" stroke="#0A5C2F" stroke-width="2" stroke-miterlimit="10" points="287.835,469.681 287.835,390.105 
			213.084,390.105 213.084,469.681 		"/>
		<path fill="none" stroke="#0A5C2F" stroke-width="2" stroke-miterlimit="10" d="M293.05,359.935v21.352
			c0,0-5.214,2.233-5.214,8.453"/>
		<path fill="none" stroke="#0A5C2F" stroke-width="2" stroke-miterlimit="10" d="M213.084,389.643c0,0-0.523-7.012-4.857-8.09
			v-21.618"/>
		<path fill="none" stroke="#0A5C2F" stroke-width="2" stroke-miterlimit="10" d="M293.05,337.17v22.889h-84.824V337.17
			c0,0,2.878-0.435,3.637,0c1.462,0.837,2.756,5.589,2.756,5.589h4.14c0,0,1.723-4.769,3.259-5.589c0.695-0.372,2.599-0.416,3.262,0
			c1.47,0.925,3.384,5.589,3.384,5.589h3.39c0,0,1.829-4.773,3.384-5.589c0.724-0.38,2.662-0.381,3.386,0
			c1.549,0.816,3.355,5.589,3.355,5.589h3.288c0,0,1.936-4.776,3.51-5.589c0.728-0.376,2.665-0.385,3.386,0
			c1.536,0.82,3.259,5.589,3.259,5.589h3.389c0,0,1.83-4.773,3.386-5.589c0.751-0.394,2.762-0.399,3.508,0
			c1.536,0.82,3.262,5.589,3.262,5.589h3.635c0,0,1.723-4.769,3.26-5.589c0.746-0.399,2.764-0.399,3.513,0
			c1.534,0.82,3.258,5.589,3.258,5.589h3.136c0,0,1.733-4.65,3.308-5.462c0.701-0.361,3.467-0.126,3.467-0.126H293.05z"/>
		<path fill="none" stroke="#0A5C2F" stroke-width="2" stroke-miterlimit="10" d="M211.749,268.395v-30.541c0,0,2.619-0.383,3.311,0
			c1.329,0.738,2.507,4.929,2.507,4.929h3.767c0,0,1.567-4.206,2.964-4.929c0.632-0.328,2.367-0.367,2.971,0
			c1.337,0.815,3.077,4.929,3.077,4.929h3.086c0,0,1.664-4.209,3.08-4.929c0.658-0.335,2.421-0.337,3.08,0
			c1.411,0.72,3.054,4.929,3.054,4.929h2.993c0,0,1.76-4.212,3.193-4.929c0.662-0.331,2.425-0.34,3.081,0
			c1.398,0.723,2.966,4.929,2.966,4.929h3.084c0,0,1.664-4.209,3.079-4.929c0.685-0.348,2.515-0.352,3.194,0
			c1.396,0.723,2.968,4.929,2.968,4.929h1.97h1.338c0,0,1.567-4.206,2.967-4.929c0.679-0.352,2.514-0.352,3.196,0
			c1.397,0.723,2.965,4.929,2.965,4.929h2.853c0,0,1.577-4.101,3.008-4.817c0.639-0.318,3.156-0.111,3.156-0.111h0.279v30.541"/>
		<polyline fill="none" stroke="#0A5C2F" stroke-width="2" stroke-miterlimit="10" points="217.117,342.526 217.117,285.065 
			283.569,285.065 283.569,342.654 		"/>
		
			<line fill="none" stroke="#0A5C2F" stroke-width="2" stroke-miterlimit="10" x1="282.197" y1="273.889" x2="282.197" y2="285.065"/>
		
			<line fill="none" stroke="#0A5C2F" stroke-width="2" stroke-miterlimit="10" x1="275.186" y1="273.889" x2="275.186" y2="285.065"/>
		
			<line fill="none" stroke="#0A5C2F" stroke-width="2" stroke-miterlimit="10" x1="268.175" y1="273.889" x2="268.175" y2="285.065"/>
		
			<line fill="none" stroke="#0A5C2F" stroke-width="2" stroke-miterlimit="10" x1="261.164" y1="273.889" x2="261.164" y2="285.065"/>
		
			<line fill="none" stroke="#0A5C2F" stroke-width="2" stroke-miterlimit="10" x1="254.153" y1="273.889" x2="254.153" y2="285.065"/>
		
			<line fill="none" stroke="#0A5C2F" stroke-width="2" stroke-miterlimit="10" x1="247.142" y1="273.889" x2="247.142" y2="285.065"/>
		
			<line fill="none" stroke="#0A5C2F" stroke-width="2" stroke-miterlimit="10" x1="240.131" y1="273.889" x2="240.131" y2="285.065"/>
		<line fill="none" stroke="#0A5C2F" stroke-width="2" stroke-miterlimit="10" x1="233.12" y1="273.889" x2="233.12" y2="285.065"/>
		
			<line fill="none" stroke="#0A5C2F" stroke-width="2" stroke-miterlimit="10" x1="226.109" y1="273.889" x2="226.109" y2="285.065"/>
		
			<line fill="none" stroke="#0A5C2F" stroke-width="2" stroke-miterlimit="10" x1="219.098" y1="273.889" x2="219.098" y2="285.065"/>
		<polyline fill="none" stroke="#0A5C2F" stroke-width="2" stroke-miterlimit="10" points="217.117,285.065 213.534,285.065 
			213.534,273.889 283.569,273.889 287.76,273.889 287.76,285.065 283.569,285.065 		"/>
		<polyline fill="none" stroke="#0A5C2F" stroke-width="2" stroke-miterlimit="10" points="213.534,273.889 212.231,268.507 
			288.679,268.507 287.76,273.889 		"/>
		<polyline fill="none" stroke="#0A5C2F" stroke-width="2" stroke-miterlimit="10" points="278.049,239.658 278.146,206.536 
			223.287,206.536 223.287,238.438 		"/>
		<polyline fill="none" stroke="#0A5C2F" stroke-width="2" stroke-miterlimit="10" points="225.886,206.666 225.886,195.8 
			274.799,195.8 274.799,206.666 		"/>
		<polyline fill="none" stroke="#0A5C2F" stroke-width="1.5" stroke-miterlimit="10" points="229.951,194.704 229.951,195.669 
			229.951,184.802 270.807,184.802 270.807,195.669 270.807,194.704 		"/>
		<polyline fill="none" stroke="#0A5C2F" stroke-width="1.5" stroke-miterlimit="10" points="229.951,184.802 226.629,184.802 
			226.629,180.456 274.166,180.456 274.166,184.802 270.807,184.802 		"/>
		
			<line fill="none" stroke="#0A5C2F" stroke-width="2" stroke-miterlimit="10" x1="204.651" y1="483.189" x2="296.643" y2="483.189"/>
		
			<line fill="none" stroke="#0A5C2F" stroke-width="1.5" stroke-miterlimit="10" x1="206.195" y1="493.037" x2="295.618" y2="493.037"/>
		
			<line fill="none" stroke="#0A5C2F" stroke-width="1.5" stroke-miterlimit="10" x1="205.748" y1="497.901" x2="296.386" y2="497.901"/>
		
			<line fill="none" stroke="#0A5C2F" stroke-width="1.5" stroke-miterlimit="10" x1="205.748" y1="510.655" x2="295.17" y2="510.655"/>
		<path fill="none" stroke="#0A5C2F" stroke-width="2" stroke-miterlimit="10" d="M260.349,472.183v-61.846v0.078
			c0-7.859-4.366-14.229-9.752-14.229c-5.385,0-9.749,6.371-9.749,14.229v-0.078v61.846"/>
		<path fill="none" stroke="#0A5C2F" stroke-width="1.5" stroke-miterlimit="10" d="M289.215,383.652v-13.82v0.05
			c0-5.164-2.203-6.789-4.919-6.789c-2.714,0-4.916,1.625-4.916,6.789v-0.05v15.563"/>
		<path fill="none" stroke="#0A5C2F" stroke-width="1.5" stroke-miterlimit="10" d="M275.69,380.957v-11.126v0.05
			c0-5.164-2.203-6.789-4.918-6.789c-2.714,0-4.917,1.625-4.917,6.789v-0.05v12.126"/>
		<path fill="none" stroke="#0A5C2F" stroke-width="1.5" stroke-miterlimit="10" d="M262.165,385.394v-15.563v0.05
			c0-5.164-2.203-6.789-4.917-6.789c-2.714,0-4.917,1.625-4.917,6.789v-0.05v11.126"/>
		<path fill="none" stroke="#0A5C2F" stroke-width="1.5" stroke-miterlimit="10" d="M248.64,380.957v-11.126v0.05
			c0-5.164-2.203-6.789-4.918-6.789c-2.714,0-4.916,1.625-4.916,6.789v2.38v12.605"/>
		<path fill="none" stroke="#0A5C2F" stroke-width="1.5" stroke-miterlimit="10" d="M235.115,381.221v-11.39v0.05
			c0-5.164-2.203-6.789-4.918-6.789c-2.714,0-4.917,1.625-4.917,6.789v-0.05v11.39"/>
		<path fill="none" stroke="#0A5C2F" stroke-width="1.5" stroke-miterlimit="10" d="M221.59,386.082v-16.251v0.05
			c0-5.164-2.203-6.789-4.918-6.789c-2.714,0-4.917,1.625-4.917,6.789v-0.05v13.82"/>
		<path fill="none" stroke="#0A5C2F" stroke-width="1.5" stroke-miterlimit="10" d="M287.987,389.445v-3.747v0.036
			c0-3.713-1.379-4.883-3.082-4.883c-1.703,0-3.083,1.169-3.083,4.883v-0.036v3.747H287.987z"/>
		<path fill="none" stroke="#0A5C2F" stroke-width="1.5" stroke-miterlimit="10" d="M279.38,389.445v-3.747v0.036
			c0-3.713-1.38-4.883-3.082-4.883c-1.703,0-3.083,1.169-3.083,4.883v-0.036v3.747H279.38z"/>
		<path fill="none" stroke="#0A5C2F" stroke-width="1.5" stroke-miterlimit="10" d="M270.773,389.445v-3.747v0.036
			c0-3.713-1.38-4.883-3.082-4.883c-1.704,0-3.083,1.169-3.083,4.883v-0.036v3.747H270.773z"/>
		<path fill="none" stroke="#0A5C2F" stroke-width="1.5" stroke-miterlimit="10" d="M262.167,389.445v-3.747v0.036
			c0-3.713-1.38-4.883-3.083-4.883c-1.703,0-3.082,1.169-3.082,4.883v-0.036v3.747H262.167z"/>
		<path fill="none" stroke="#0A5C2F" stroke-width="1.5" stroke-miterlimit="10" d="M253.56,389.445v-3.747v0.036
			c0-3.713-1.38-4.883-3.083-4.883c-1.703,0-3.082,1.169-3.082,4.883v-0.036v3.747H253.56z"/>
		<path fill="none" stroke="#0A5C2F" stroke-width="1.5" stroke-miterlimit="10" d="M244.952,389.445v-3.747v0.036
			c0-3.713-1.379-4.883-3.082-4.883c-1.703,0-3.082,1.169-3.082,4.883v-0.036v3.747H244.952z"/>
		<path fill="none" stroke="#0A5C2F" stroke-width="1.5" stroke-miterlimit="10" d="M236.345,389.445v-3.747v0.036
			c0-3.713-1.379-4.883-3.082-4.883c-1.703,0-3.083,1.169-3.083,4.883v-0.036v3.747H236.345z"/>
		<path fill="none" stroke="#0A5C2F" stroke-width="1.5" stroke-miterlimit="10" d="M227.738,389.445v-3.747v0.036
			c0-3.713-1.38-4.883-3.082-4.883c-1.703,0-3.082,1.169-3.082,4.883v-0.036v3.747H227.738z"/>
		<path fill="none" stroke="#0A5C2F" stroke-width="1.5" stroke-miterlimit="10" d="M218.91,389.445v-3.747v0.036
			c0-3.713-1.379-4.883-3.083-4.883c-1.703,0-3.082,1.169-3.082,4.883v-0.036v3.747H218.91z"/>
		<path fill="none" stroke="#0A5C2F" stroke-width="2" stroke-miterlimit="10" d="M229.428,472.183v-61.846v0.078
			c0-7.859-4.365-14.229-9.753-14.229c-2.315,0-4.444,1.18-6.121,3.152"/>
		<path fill="none" stroke="#0A5C2F" stroke-width="2" stroke-miterlimit="10" d="M271.961,472.183v-61.846v0.078
			c0-7.859,4.364-14.229,9.753-14.229c2.315,0,4.444,1.18,6.121,3.152"/>
		<path fill="none" stroke="#0A5C2F" stroke-width="2" stroke-miterlimit="10" d="M258.396,341.859v-36.702v0.07
			c0-7.058-3.92-12.78-8.759-12.78c-4.834,0-8.755,5.722-8.755,12.78v0.26v34.008"/>
		<path fill="none" stroke="#0A5C2F" stroke-width="2" stroke-miterlimit="10" d="M229.763,341.859v-36.702v0.07
			c0-7.058-3.92-12.78-8.758-12.78c-2.08,0-2.688,0.405-4.193,2.177"/>
		<path fill="none" stroke="#0A5C2F" stroke-width="2" stroke-miterlimit="10" d="M269.44,341.859v-36.702v0.07
			c0-7.058,3.92-12.78,8.759-12.78c2.08,0,3.992,1.06,5.497,2.832"/>
		<path fill="#0A5C2F" d="M268.528,242.216l3.511-1.048l0.534-3.143v-6.126v0.055c0-5.523-1.92-7.261-4.287-7.261
			c-2.368,0-4.287,1.738-4.287,7.261v-0.055v6.589"/>
		<polyline fill="none" stroke="#0A5C2F" stroke-width="1.5" stroke-miterlimit="10" points="261.581,236.7 261.581,219.353 
			274.769,219.353 274.769,238.179 		"/>
		<path fill="#0A5C2F" d="M250.409,237.368l3.421,3.045l0.966-0.447v-7.999v0.054c0-5.522-1.919-7.261-4.287-7.261
			c-2.367,0-4.287,1.739-4.287,7.261v-0.054v7.26"/>
		<polyline fill="none" stroke="#0A5C2F" stroke-width="1.5" stroke-miterlimit="10" points="243.978,243.096 243.978,219.353 
			257.165,219.353 257.165,243.096 		"/>
		<path fill="#0A5C2F" d="M232.013,242.783l3.144-4.018l2.361-0.276v-6.521v0.054c0-5.522-1.92-7.261-4.287-7.261
			s-4.287,1.739-4.287,7.261v-0.054v8.075"/>
		<polyline fill="none" stroke="#0A5C2F" stroke-width="1.5" stroke-miterlimit="10" points="226.526,238.179 226.526,219.353 
			239.713,219.353 239.713,238.179 		"/>
		
			<line fill="none" stroke="#0A5C2F" stroke-width="2" stroke-miterlimit="10" x1="266.257" y1="389.643" x2="266.257" y2="471.669"/>
		
			<line fill="none" stroke="#0A5C2F" stroke-width="2" stroke-miterlimit="10" x1="234.728" y1="389.643" x2="234.728" y2="471.669"/>
		
			<line fill="none" stroke="#0A5C2F" stroke-width="2" stroke-miterlimit="10" x1="264.446" y1="286.117" x2="264.446" y2="336.985"/>
		
			<line fill="none" stroke="#0A5C2F" stroke-width="2" stroke-miterlimit="10" x1="235.481" y1="285.447" x2="235.481" y2="337.099"/>
		<path fill="#0A5C2F" d="M272.894,181.935c0-16.444-10.095-28.295-22.551-28.295c-12.454,0-22.552,11.851-22.552,28.295"/>
		<path fill="none" stroke="#0A5C2F" stroke-width="2" stroke-miterlimit="10" d="M237.857,238.054"/>
		<path fill="none" stroke="#0A5C2F" stroke-width="2" stroke-miterlimit="10" d="M237.857,207.259"/>
		
			<line fill="none" stroke="#0A5C2F" stroke-width="2" stroke-miterlimit="10" x1="208.335" y1="355.177" x2="292.038" y2="355.177"/>
		<line fill="none" x1="275.541" y1="214.176" x2="277.247" y2="212.327"/>
		
			<line fill="none" stroke="#0A5C2F" stroke-width="1.5" stroke-miterlimit="10" x1="277.247" y1="212.327" x2="224.249" y2="212.327"/>
		
			<line fill="none" stroke="#0A5C2F" stroke-width="1.5" stroke-miterlimit="10" x1="230.442" y1="196.277" x2="230.416" y2="205.411"/>
		
			<line fill="none" stroke="#0A5C2F" stroke-width="1.5" stroke-miterlimit="10" x1="236.132" y1="196.296" x2="236.105" y2="205.43"/>
		
			<line fill="none" stroke="#0A5C2F" stroke-width="1.5" stroke-miterlimit="10" x1="241.821" y1="196.314" x2="241.795" y2="205.449"/>
		
			<line fill="none" stroke="#0A5C2F" stroke-width="1.5" stroke-miterlimit="10" x1="247.51" y1="196.333" x2="247.484" y2="205.467"/>
		
			<line fill="none" stroke="#0A5C2F" stroke-width="1.5" stroke-miterlimit="10" x1="253.2" y1="196.352" x2="253.174" y2="205.487"/>
		
			<line fill="none" stroke="#0A5C2F" stroke-width="1.5" stroke-miterlimit="10" x1="258.889" y1="196.37" x2="258.863" y2="205.505"/>
		
			<line fill="none" stroke="#0A5C2F" stroke-width="1.5" stroke-miterlimit="10" x1="264.579" y1="196.389" x2="264.553" y2="205.524"/>
		
			<line fill="none" stroke="#0A5C2F" stroke-width="1.5" stroke-miterlimit="10" x1="270.268" y1="196.408" x2="270.242" y2="205.542"/>
		<path fill="none" stroke="#0A5C2F" stroke-width="6" stroke-miterlimit="10" d="M530.725,552.709
			c0-61.327-54.15-111.043-120.95-111.043c-66.799,0-120.951,49.716-120.951,111.043"/>
		<path fill="none" stroke="#90BF3E" stroke-width="6" stroke-miterlimit="10" d="M530.725,546.976
			c0-61.328-54.151-111.044-120.95-111.044c-66.8,0-120.952,49.716-120.952,111.044"/>
		<path fill="#90BF3E" d="M415.233,433.155c0-0.001,0-1.885,0-4.838c2.186-0.778,3.763-2.846,3.763-5.299
			c0-2.455-1.576-4.522-3.763-5.3c0-1.902,0-3.872,0-5.848c3.315-0.843,5.779-3.823,5.779-7.4c0-3.578-2.464-6.558-5.779-7.401
			c0-3.455,0-5.95,0-6.711h3.36v-6.041c14.209-0.067,26.985-9.925,30.154-24.387c0.088-0.404,0.13-0.808,0.201-1.211
			c-3.088,5.298-15.395,15.218-28.245,12.404c-14.14-3.098-23.092-17.071-19.995-31.211c1.674-7.643,6.539-13.746,12.878-17.274
			c-12.262,1.936-22.68,11.145-25.498,24.003c-3.392,15.488,5.431,30.785,20.021,35.906v7.81h2.822v6.878
			c-3.04,1.017-5.244,3.853-5.244,7.234c0,3.38,2.204,6.217,5.244,7.233v6.233c-1.901,0.909-3.228,2.833-3.228,5.082
			c0,2.248,1.326,4.172,3.228,5.081v4.999"/>
		<path fill="#0A5C2F" d="M411,697.164c0,0-80.608-227.772-313.556-228.512l16.269,51.027
			C113.714,519.68,301.798,483.443,411,697.164z"/>
		<path fill="#90BF3E" d="M411,697.164c0,0-77.157-186.112-279.292-183.154l15.777,43.878
			C147.485,557.888,313.63,538.659,411,697.164z"/>
		<path fill="#D7DD22" d="M411,697.164c0,0-78.104-155.179-236.874-139.833l12.8,35.067
			C186.926,592.399,289.966,573.172,411,697.164z"/>
		<path fill="#0A5C2F" d="M411,697.164c0,0,80.607-227.772,313.556-228.512l-16.27,51.027
			C708.286,519.68,520.202,483.443,411,697.164z"/>
		<path fill="#90BF3E" d="M411,697.164c0,0,77.157-186.112,279.293-183.154l-15.779,43.878
			C674.514,557.888,508.369,538.659,411,697.164z"/>
		<path fill="#D7DD22" d="M411,697.164c0,0,78.104-155.179,236.873-139.833l-12.799,35.067
			C635.074,592.399,532.033,573.172,411,697.164z"/>
	</g>
</g>
</svg>
