<?xml version="1.0" encoding="utf-8"?>
<!-- Generator: Adobe Illustrator 17.0.0, SVG Export Plug-In . SVG Version: 6.00 Build 0)  -->
<!DOCTYPE svg PUBLIC "-//W3C//DTD SVG 1.1//EN" "http://www.w3.org/Graphics/SVG/1.1/DTD/svg11.dtd">
<svg version="1.1" id="Layer_1" xmlns="http://www.w3.org/2000/svg" xmlns:xlink="http://www.w3.org/1999/xlink" x="0px" y="0px"
	 width="822px" height="906px" viewBox="0 0 822 906" enable-background="new 0 0 822 906" xml:space="preserve">
<rect x="-34" display="none" fill="#231F20" width="866" height="990"/>
<g>
	<g>
		<path fill="#90BF3E" stroke="#90BF3E" stroke-miterlimit="10" d="M170.355,692.066c0.126,3.313,1.188,7.282,5.866,7.51
			c0,0.404,0,0.759,0,1.138c-2.351-0.202-4.526-1.087-5.967-2.907c0.354,4.5-2.781,7.509-6.827,9.001
			c3.085-2.983,4.248-2.908,4.248-11.909c0-6.245-0.025-13.35-0.025-14.311c0-0.683-0.177-1.643-1.415-1.643
			c-0.304,0-0.936,0.177-1.062-0.253c-0.051-0.101,0-0.202,0.126-0.253c2.225,0,4.45-0.05,6.624-0.05
			c0.43,0,0.455,0.101,0.455,0.252c0,0.329-0.304,0.178-0.986,0.329c-0.885,0.202-1.037,0.632-1.037,1.542c0,1.871,0,2.857,0,6.119
			C170.355,688.425,170.355,690.246,170.355,692.066z M171.215,672.901c0,1.239-0.986,2.226-2.225,2.226
			c-1.264,0-2.225-0.986-2.225-2.226c0-1.189,0.961-2.225,2.225-2.225C170.228,670.677,171.215,671.713,171.215,672.901z"/>
		<path fill="#90BF3E" stroke="#90BF3E" stroke-miterlimit="10" d="M187.241,682.788c5.208,0,10.467,0.228,16.358-0.178
			c3.161-0.227,6.523-0.985,8.243-3.944c-0.733,1.441-2.377,5.411-6.372,6.423c-5.259,1.34-11.454,0.43-16.814,0.43
			c-4.399,0-8.394,0.227-8.394,5.688c0,3.793,2.099,7.535,5.891,8.369h32.136v1.138h-42.072v-1.138h6.245
			c-2.73-1.441-4.602-4.248-4.602-7.863C177.861,686.807,182.033,682.788,187.241,682.788z"/>
		<path fill="#90BF3E" stroke="#90BF3E" stroke-miterlimit="10" d="M218.277,699.576c1.037-0.025,2.048-0.379,2.983-0.961
			c2.706-1.694,2.908-4.955,2.908-7.94v-8.849c0-0.227,0-0.481,0-0.759c0-0.986-0.152-2.149-1.593-2.149
			c-0.885,0-0.936-0.025-0.936-0.253c0-0.101,0.05-0.151,0.152-0.202c2.225,0,4.45-0.051,6.624-0.051c0.329,0,0.48,0.076,0.48,0.253
			c0,0.506-2.022-0.277-2.022,1.871c0,0.835,0,5.36,0,6.094c0,6.599,0.252,13.375-8.597,14.083V699.576z M225.053,672.901
			c0,1.265-0.986,2.226-2.225,2.226c-1.188,0-2.225-0.961-2.225-2.226c0-1.238,1.037-2.225,2.225-2.225
			C224.067,670.677,225.053,671.663,225.053,672.901z M230.489,672.901c0,1.265-1.037,2.226-2.225,2.226
			c-1.239,0-2.225-0.961-2.225-2.226c0-1.238,0.986-2.225,2.225-2.225C229.452,670.677,230.489,671.663,230.489,672.901z"/>
		<path fill="#90BF3E" stroke="#90BF3E" stroke-miterlimit="10" d="M241.734,698.893c1.062,0.455,2.251,0.657,3.439,0.657
			c5.739,0,8.065-4.854,8.065-9.507c0-6.245-3.767-10.594-9.026-10.594c-0.809,0-1.644,0.102-2.478,0.329v-1.088
			c0.936-0.202,1.871-0.278,2.858-0.278c7.256,0,11.605,4.956,11.605,10.772c0,7.307-5.891,11.529-11.883,11.529
			c-0.859,0-1.719-0.076-2.579-0.253V698.893z"/>
		<path fill="#90BF3E" stroke="#90BF3E" stroke-miterlimit="10" d="M269.415,700.714c-8.395-0.683-8.597-6.826-8.597-13.097
			c0-2.377,0-14.463,0-18.002c0-1.341,0.025-2.149-0.455-2.579c-0.253-0.202-1.568-0.278-1.568-0.557
			c0-0.177,0.126-0.227,0.455-0.227c2.098,0,4.197,0,6.295,0c0.253,0,0.48,0,0.48,0.227c0,0.102-0.126,0.228-0.253,0.228
			c-1.77,0-2.2,0.48-2.2,1.643c0,6.094-0.05,17.698-0.05,22.351c0,3.691,0.505,8.52,5.891,8.9V700.714z"/>
		<path fill="#90BF3E" stroke="#90BF3E" stroke-miterlimit="10" d="M291.004,696.693c-1.34,2.504-4.298,4.021-7.206,4.021
			c-3.919-0.329-5.993-1.871-7.13-4.021c-1.138,2.149-3.262,3.742-7.256,4.021v-1.138c1.037,0,2.073-0.355,3.009-0.961
			c2.706-1.694,2.908-4.931,2.908-7.94v-9.684c0-0.505-0.051-1.365-0.531-1.795c-0.329-0.253-1.972-0.202-1.972-0.531
			c0-0.126,0-0.253,0.48-0.253h6.726c0.43,0,0.455,0.076,0.455,0.253c0,0.228-0.253,0.253-0.936,0.253
			c-1.416,0-1.567,0.81-1.567,1.518c0,0.101,0,3.515,0.025,10.239c0,3.768,0.935,8.9,5.79,8.9c4.93,0,5.866-5.031,5.866-8.9v-8.596
			c0-0.076,0-0.431-0.025-1.063c-0.025-0.657-0.076-1.087-0.177-1.314c-0.102-0.228-0.253-0.404-0.456-0.531
			c-0.683-0.379-1.972-0.177-1.82-0.506c0-0.126-0.025-0.253,0.455-0.253h6.726c0.329,0,0.48,0.076,0.48,0.253
			c0,0.228-0.329,0.253-0.935,0.253c-1.189,0-1.517,0.633-1.517,1.618c0,2.099-0.05,3.389-0.05,10.139
			c0,2.984,0.202,6.245,2.907,7.94c0.986,0.606,1.922,0.961,3.009,0.961c4.931,0,5.891-4.956,5.891-8.9
			c-0.025-6.473-0.05-9.835-0.076-10.063c0-0.227-0.126-0.582-0.379-1.037c-0.253-0.455-0.632-0.683-1.112-0.657
			c-0.936,0.025-0.961-0.126-0.961-0.303c0-0.102,0.051-0.152,0.152-0.152c2.225,0,4.425-0.051,6.625-0.051
			c0.329,0,0.48,0.076,0.48,0.253c0,0.531-2.023-0.277-2.023,1.871v7.813c0,5.968-0.48,12.364-8.597,12.364
			C294.265,700.714,292.167,698.868,291.004,696.693z M290.574,672.901c0,1.265-0.986,2.226-2.225,2.226
			c-1.189,0-2.225-0.961-2.225-2.226c0-1.238,1.037-2.225,2.225-2.225C289.588,670.677,290.574,671.663,290.574,672.901z
			 M293.279,668.376c0,1.264-0.986,2.225-2.225,2.225c-1.189,0-2.225-0.961-2.225-2.225c0-1.239,1.037-2.225,2.225-2.225
			C292.293,666.151,293.279,667.136,293.279,668.376z M296.01,672.901c0,1.265-1.037,2.226-2.225,2.226
			c-1.239,0-2.225-0.961-2.225-2.226c0-1.238,0.986-2.225,2.225-2.225C294.973,670.677,296.01,671.663,296.01,672.901z"/>
		<path fill="#90BF3E" stroke="#90BF3E" stroke-miterlimit="10" d="M315.821,692.927c0,3.311-0.152,6.169-0.48,7.408
			c-0.784,3.009-3.161,5.41-6.422,6.473c3.135-2.528,4.197-3.818,4.197-11.909c0-7.989,0.051-12.49,0.051-13.754
			c0-0.835-0.202-2.175-1.29-2.175c-0.152-0.076-1.239,0.076-1.239-0.329c0-0.101,0-0.151,0.101-0.202
			c2.174,0,4.425-0.05,6.624-0.05c0.43,0,0.456,0.101,0.456,0.228c0,0.227-0.152,0.252-0.304,0.252
			c-1.416,0-1.719,0.911-1.719,2.226c0,1.517,0,2.63,0,5.537C315.796,688.704,315.821,690.903,315.821,692.927z"/>
		<path fill="#90BF3E" stroke="#90BF3E" stroke-miterlimit="10" d="M319.258,688.982c-0.152-6.447,0.076-12.92-0.025-19.367
			c-0.025-1.594,0.151-2.832-1.82-2.908c-0.152,0-0.228-0.076-0.228-0.151c0-0.127,0.177-0.304,0.48-0.304c2.099,0,4.197,0,6.296,0
			c0.278,0,0.455,0.151,0.455,0.304c0,0.075-0.076,0.151-0.228,0.151c-1.264,0.051-2.124,0.102-2.225,1.643
			c-0.126,6.877-0.05,13.754-0.05,20.632H319.258z M318.347,711.484c0.405-0.834,1.189-1.44,2.074-1.719
			c-1.543-0.354-2.427-1.771-2.427-3.313c0-1.922,1.643-3.413,3.54-3.413c1.037,0,3.084,0,4.222,0c1.644,0,4.172,0.202,5.234-1.593
			c-0.354,0.531-0.859,2.073-2.427,2.478c-1.315,0.354-5.588,0.102-8.091,0.202c-1.112,0-1.593,1.315-1.593,2.099
			c0,1.467,0.784,2.933,2.275,3.236h10.139v0.455h-9.633C320.421,709.917,319.359,710.726,318.347,711.484z M319.359,691.687h2.554
			c0.126,3.515,1.037,7.914,5.916,7.914c5.36,0,5.891-5.184,5.891-8.9c0-4.602,0-14.791,0-21.086c0-2.352-0.101-2.908-2.275-2.908
			c-0.101,0-0.227-0.126-0.227-0.228c0-0.227,0.227-0.227,0.48-0.227c2.099,0,4.197,0,6.296,0c0.329,0,0.455,0.051,0.455,0.227
			c0,0.304-1.265,0.278-1.568,0.557c-0.48,0.43-0.455,1.238-0.455,2.579c0,4.424,0,14.74,0,18.002
			c0,6.271-0.177,13.097-8.597,13.097C321.255,700.714,319.713,696.314,319.359,691.687z"/>
		<path fill="#90BF3E" stroke="#90BF3E" stroke-miterlimit="10" d="M343.322,668.376c-0.051-1.29-0.582-1.618-1.77-1.643
			c-0.177,0-0.228-0.076-0.228-0.151c0-0.127,0.177-0.304,0.455-0.304c2.099,0,4.197,0,6.296,0c0.278,0,0.455,0.177,0.455,0.304
			c0,0.075-0.076,0.151-0.228,0.151c-1.264,0.025-2.124,0.102-2.2,1.643c-0.152,2.554-0.101,5.158-0.051,28.95
			c0,2.756,0.556,2.882,2.25,2.907c0.151,0.025,0.228,0.076,0.228,0.177c0,0.127-0.177,0.304-0.455,0.304c-2.099,0-4.197,0-6.296,0
			c-0.278,0-0.455-0.177-0.455-0.304c0-0.101,0.051-0.151,0.228-0.177c1.542-0.051,1.745-0.708,1.795-2.199L343.322,668.376z"/>
		<path fill="#90BF3E" stroke="#90BF3E" stroke-miterlimit="10" d="M362.66,700.714c-8.748,0-11.555-6.726-11.555-11.176
			c0-6.295,5.006-11.125,11.707-11.125c1.643,0,3.211,0.253,4.602,0.708c7.155,2.732,7.054,7.99,7.054,14.059
			c0,2.326,0.076,4.904-0.48,7.181c-0.708,2.831-4.627,6.7-6.068,6.018c3.414-1.896,3.843-6.423,3.843-9.685
			C369.462,699.298,366.251,700.714,362.66,700.714z M363.47,699.525c0.43,0,0.935-0.051,1.517-0.1
			c1.947-0.354,6.473-1.973,6.473-9.532c0-6.852-4.273-10.392-8.799-10.392c-4.981,0-8.496,3.06-8.496,9.254
			C354.165,695.455,358.059,699.525,363.47,699.525z"/>
		<path fill="#90BF3E" stroke="#90BF3E" stroke-miterlimit="10" d="M394.331,700.714c-5.866,0-11.226-4.602-11.226-11.631
			c0-1.315,0.228-2.604,0.657-3.792h3.11c-0.531,1.391-0.809,2.983-0.809,4.627c0,4.778,2.377,9.658,8.268,9.658h14.513
			c-4.374-2.175-6.093-6.447-6.093-10.038c0-3.236,1.846-11.149,11.707-11.149c6.396,0,11.63,3.843,11.63,10.669
			c0,5.841-4.121,11.303-11.125,11.605v0.051H394.331z M415.115,699.525c4.223,0,7.99-2.882,7.99-9.633
			c0-6.169-3.742-10.468-8.799-10.468c-5.031,0-8.495,3.211-8.495,9.33C405.81,696.087,410.437,699.525,415.115,699.525z
			 M416.682,672.901c0,1.239-0.986,2.226-2.225,2.226c-1.264,0-2.225-0.986-2.225-2.226c0-1.189,0.961-2.225,2.225-2.225
			C415.696,670.677,416.682,671.713,416.682,672.901z"/>
		<path fill="#90BF3E" stroke="#90BF3E" stroke-miterlimit="10" d="M439.299,700.714c-8.395-0.683-8.597-6.826-8.597-13.097
			c0-2.377,0-14.463,0-18.002c0-1.341,0.025-2.149-0.455-2.579c-0.253-0.202-1.567-0.278-1.567-0.557
			c0-0.177,0.126-0.227,0.455-0.227c2.099,0,4.197,0,6.296,0c0.252,0,0.48,0,0.48,0.227c0,0.102-0.126,0.228-0.252,0.228
			c-1.77,0-2.2,0.48-2.2,1.643c0,6.094-0.051,17.698-0.051,22.351c0,3.691,0.506,8.52,5.892,8.9V700.714z"/>
		<path fill="#90BF3E" stroke="#90BF3E" stroke-miterlimit="10" d="M439.295,699.576h7.181c-4.374-2.175-6.094-6.447-6.094-10.038
			c0-0.783,0.102-1.618,0.304-2.427c0.455-1.871,2.68-8.723,11.403-8.723c6.396,0,11.63,3.843,11.63,10.669
			c0,5.841-4.121,11.303-11.125,11.605v0.051h-13.299V699.576z M452.746,699.525c4.223,0,7.989-2.882,7.989-9.633
			c0-6.169-3.742-10.468-8.799-10.468c-5.031,0-8.495,3.211-8.495,9.33C443.441,696.087,448.068,699.525,452.746,699.525z
			 M451.659,672.901c0,1.265-0.986,2.226-2.226,2.226c-1.189,0-2.225-0.961-2.225-2.226c0-1.238,1.036-2.225,2.225-2.225
			C450.673,670.677,451.659,671.663,451.659,672.901z M457.095,672.901c0,1.265-1.037,2.226-2.225,2.226
			c-1.239,0-2.226-0.961-2.226-2.226c0-1.238,0.986-2.225,2.226-2.225C456.057,670.677,457.095,671.663,457.095,672.901z"/>
		<path fill="#90BF3E" stroke="#90BF3E" stroke-miterlimit="10" d="M477.82,700.714c-8.748,0-11.555-6.726-11.555-11.176
			c0-6.295,5.006-11.125,11.706-11.125c1.643,0,3.211,0.253,4.602,0.708c7.155,2.732,7.055,7.99,7.055,14.059
			c0,2.326,0.076,4.904-0.48,7.181c-0.708,2.831-4.627,6.7-6.068,6.018c3.413-1.896,3.844-6.423,3.844-9.685
			C484.622,699.298,481.41,700.714,477.82,700.714z M478.629,699.525c0.431,0,0.936-0.051,1.518-0.1
			c1.946-0.354,6.473-1.973,6.473-9.532c0-6.852-4.273-10.392-8.799-10.392c-4.98,0-8.495,3.06-8.495,9.254
			C469.325,695.455,473.219,699.525,478.629,699.525z"/>
		<path fill="#90BF3E" stroke="#90BF3E" stroke-miterlimit="10" d="M487.825,673.711c0.404-0.835,1.188-1.441,2.073-1.72
			c-1.543-0.354-2.428-1.77-2.428-3.312c0-1.922,1.643-3.414,3.54-3.414h4.223c1.644,0,4.172,0.202,5.233-1.593
			c-0.354,0.531-0.859,2.073-2.427,2.479c-1.315,0.353-5.588,0.101-8.091,0.202c-1.113,0-1.594,1.314-1.594,2.099
			c0,1.466,0.784,2.933,2.276,3.236h10.139v0.455h-9.634C489.898,672.143,488.836,672.952,487.825,673.711z M495.006,688.982
			c-0.025-0.885-0.025-1.34-0.025-1.391c0-0.051,0.025-3.591,0.051-10.619c0-2.781,0.556-2.832,2.25-2.908
			c0.151,0,0.228-0.05,0.228-0.151c0-0.127-0.177-0.304-0.455-0.304h-6.296c-0.278,0-0.455,0.177-0.455,0.304
			c0,0.102,0.076,0.151,0.228,0.151c1.669,0.076,1.795,0.986,1.795,2.275c-0.025,7.636-0.025,11.454-0.025,11.454
			s0,0.404,0.025,1.188H495.006z M509.493,687.617v-18.002c0-1.341-0.025-2.149,0.455-2.579c0.304-0.278,1.567-0.253,1.567-0.557
			c0-0.177-0.126-0.227-0.455-0.227h-6.296c-0.252,0-0.479,0-0.479,0.227c0,0.102,0.126,0.228,0.228,0.228
			c2.174,0,2.275,0.557,2.275,2.908v21.086c0,3.717-0.531,8.9-5.892,8.9c-4.88,0-5.79-4.399-5.916-7.914h-2.554
			c0.354,4.627,1.897,9.026,8.47,9.026C509.316,700.714,509.493,693.887,509.493,687.617z"/>
		<path fill="#90BF3E" stroke="#90BF3E" stroke-miterlimit="10" d="M516.389,668.376c-0.051-1.29-0.582-1.618-1.77-1.643
			c-0.178,0-0.227-0.076-0.227-0.151c0-0.127,0.177-0.304,0.455-0.304c2.098,0,4.196,0,6.295,0c0.278,0,0.455,0.177,0.455,0.304
			c0,0.075-0.075,0.151-0.228,0.151c-1.264,0.025-2.123,0.102-2.199,1.643c-0.151,2.554-0.102,5.158-0.051,28.95
			c0,2.756,0.557,2.882,2.25,2.907c0.152,0.025,0.228,0.076,0.228,0.177c0,0.127-0.177,0.304-0.455,0.304c-2.099,0-4.197,0-6.295,0
			c-0.278,0-0.455-0.177-0.455-0.304c0-0.101,0.05-0.151,0.227-0.177c1.542-0.051,1.744-0.708,1.795-2.199L516.389,668.376z"/>
		<path fill="#90BF3E" stroke="#90BF3E" stroke-miterlimit="10" d="M562.299,699.576c1.037-0.051,2.049-0.355,3.009-0.961
			c2.681-1.669,2.883-4.955,2.883-7.94c0-1.997,0-9.228,0-9.582c0-1.34-0.202-2.175-1.542-2.175c-0.708,0-0.935-0.051-0.935-0.253
			c0-0.177,0.1-0.253,0.455-0.253h6.75c0.48,0,0.456,0.127,0.456,0.253c0,0.278-0.304,0.329-0.658,0.329
			c-0.202,0-0.404-0.025-0.581-0.025c-1.138,0-1.239,1.214-1.239,2.326v9.38c0,2.984,0.202,6.245,2.908,7.94
			c0.91,0.582,1.921,0.935,2.983,0.961v1.138c-3.919-0.304-6.094-1.846-7.232-4.021c-1.138,2.175-3.262,3.717-7.257,4.021H541.49
			c-5.814,0-11.226-4.652-11.226-11.631c0-1.315,0.253-2.604,0.708-3.792h3.109c-0.53,1.416-0.809,3.059-0.809,4.728
			c0,4.779,2.352,9.558,8.217,9.558H562.299z M553.222,704.962c0,1.264-0.986,2.225-2.226,2.225c-1.238,0-2.225-0.961-2.225-2.225
			c0-1.239,0.986-2.226,2.225-2.226C552.236,702.736,553.222,703.722,553.222,704.962z"/>
		<path fill="#90BF3E" stroke="#90BF3E" stroke-miterlimit="10" d="M585.319,690.675c0,3.085,0.202,6.245,2.907,7.94
			c0.936,0.606,1.973,0.935,3.009,0.961v1.138c-3.944-0.304-6.067-1.846-7.256-4.021c-1.138,2.175-3.262,3.717-7.206,4.021v-1.138
			c5.107-0.253,5.815-5.36,5.866-8.976c0-0.102,0-9.406,0-9.507c0-1.239-0.152-2.175-1.568-2.175c-0.53,0-0.936-0.075-0.936-0.253
			c0-0.202,0.228-0.253,0.48-0.253h6.776c0.379,0,0.48,0.127,0.48,0.253c0,0.253-0.834,0.253-0.935,0.253
			c-1.441,0-1.567,1.012-1.567,1.871C585.37,680.966,585.37,681.144,585.319,690.675z M581.324,670.677
			c-1.188,0-2.225,0.986-2.225,2.225c0,1.265,1.036,2.226,2.225,2.226c1.239,0,2.226-0.961,2.226-2.226
			C583.55,671.663,582.563,670.677,581.324,670.677z M586.761,670.677c-1.239,0-2.226,0.986-2.226,2.225
			c0,1.265,0.986,2.226,2.226,2.226c1.188,0,2.225-0.961,2.225-2.226C588.985,671.663,587.949,670.677,586.761,670.677z"/>
		<path fill="#90BF3E" stroke="#90BF3E" stroke-miterlimit="10" d="M653.683,700.714c-3.009-0.253-4.931-1.189-6.22-2.528
			c-1.088,1.567-2.301,2.225-5.031,2.528h-51.2v-1.138h50.593c3.11-0.151,4.981-2.731,4.981-4.046c0-3.641-6.498-4.045-9.356-4.096
			c0,0-17.471,0.304-31.959,0.304c-3.894,0-7.964-0.506-10.113-3.591c-0.683-1.138-1.087-2.199-1.087-3.211
			c0-1.365,0.657-2.705,1.795-3.894c3.768-3.894,12.566-2.705,17.926-2.705c4.223,0,10.316,0.278,12.845-4.071
			c-0.733,1.442-2.326,5.411-6.372,6.423c-2.933,0.758-5.992,0.53-9.405,0.53c-2.629,0-5.284-0.353-7.964-0.353
			c-1.391,0-2.781,0.1-4.172,0.379c-2.023,0.43-3.515,2.226-3.515,3.844c0,2.452,3.236,3.994,6.271,4.349
			c2.907,0.051,5.84,0.051,8.773,0.051c8.773,0,17.623-0.127,26.75-0.127c3.944,0,9.785,0.708,10.923,5.563
			c0.632,2.73,2.68,4.45,5.537,4.652V700.714z"/>
		<path fill="#90BF3E" stroke="#90BF3E" stroke-miterlimit="10" d="M671.263,678.388c7.231,0,11.453,4.424,11.655,10.72
			c0,6.853-5.259,11.606-11.857,11.606c-4.652,0-8.243-2.175-10.038-5.486c-1.087,3.464-4.045,5.233-7.357,5.486v-1.138
			c1.037-0.051,2.073-0.355,3.009-0.936c3.06-1.896,2.907-6.018,2.907-9.128C659.581,683.925,663.955,678.388,671.263,678.388z
			 M672.299,699.55c2.377,0,7.56-1.467,7.56-9.658c0-7.257-4.425-10.417-8.799-10.417c-4.854,0-8.445,3.085-8.445,9.279
			C662.615,695.91,666.939,699.55,672.299,699.55z"/>
	</g>
	<g>
		<g>
			<polyline fill="none" stroke="#90BF3E" stroke-width="2" stroke-miterlimit="10" points="635.754,469.205 635.754,424.207 
				630.614,424.207 623.915,431.085 555.596,431.085 548.633,424.229 543.761,424.207 543.761,464.703 			"/>
			<polyline fill="none" stroke="#90BF3E" stroke-width="2" stroke-miterlimit="10" points="626.945,428.231 626.945,348.655 
				552.193,348.655 552.193,427.016 			"/>
			<path fill="none" stroke="#90BF3E" stroke-width="2" stroke-miterlimit="10" d="M632.16,318.486v21.352
				c0,0-5.215,2.233-5.215,8.452"/>
			<path fill="none" stroke="#90BF3E" stroke-width="2" stroke-miterlimit="10" d="M552.193,348.194c0,0-0.522-7.013-4.857-8.09
				v-21.618"/>
			<path fill="none" stroke="#90BF3E" stroke-width="2" stroke-miterlimit="10" d="M632.16,295.72v22.889h-84.824V295.72
				c0,0,2.878-0.435,3.638,0c1.461,0.837,2.756,5.589,2.756,5.589h4.14c0,0,1.722-4.77,3.259-5.589c0.695-0.371,2.6-0.415,3.262,0
				c1.471,0.924,3.385,5.589,3.385,5.589h3.39c0,0,1.829-4.773,3.384-5.589c0.724-0.38,2.662-0.381,3.386,0
				c1.55,0.816,3.355,5.589,3.355,5.589h3.289c0,0,1.935-4.776,3.509-5.589c0.73-0.375,2.666-0.385,3.387,0
				c1.537,0.819,3.26,5.589,3.26,5.589h3.389c0,0,1.83-4.773,3.385-5.589c0.751-0.395,2.762-0.399,3.509,0
				c1.535,0.82,3.261,5.589,3.261,5.589h3.636c0,0,1.724-4.77,3.26-5.589c0.747-0.399,2.765-0.399,3.514,0
				c1.533,0.82,3.258,5.589,3.258,5.589h3.136c0,0,1.733-4.65,3.308-5.462c0.7-0.361,3.467-0.126,3.467-0.126H632.16z"/>
			<path fill="none" stroke="#90BF3E" stroke-width="2" stroke-miterlimit="10" d="M550.859,226.945v-30.541
				c0,0,2.618-0.383,3.311,0c1.328,0.738,2.508,4.929,2.508,4.929h3.766c0,0,1.567-4.206,2.965-4.929
				c0.633-0.328,2.366-0.367,2.971,0c1.337,0.816,3.077,4.929,3.077,4.929h3.086c0,0,1.664-4.209,3.08-4.929
				c0.657-0.335,2.421-0.336,3.079,0c1.412,0.72,3.055,4.929,3.055,4.929h2.993c0,0,1.759-4.212,3.192-4.929
				c0.662-0.331,2.426-0.34,3.081,0c1.397,0.723,2.967,4.929,2.967,4.929h3.084c0,0,1.663-4.209,3.079-4.929
				c0.686-0.348,2.514-0.352,3.193,0c1.396,0.723,2.968,4.929,2.968,4.929h1.971h1.337c0,0,1.568-4.206,2.968-4.929
				c0.679-0.352,2.515-0.352,3.196,0c1.396,0.723,2.966,4.929,2.966,4.929h2.852c0,0,1.577-4.101,3.009-4.817
				c0.639-0.318,3.156-0.111,3.156-0.111h0.278v30.541"/>
			<polyline fill="none" stroke="#90BF3E" stroke-width="2" stroke-miterlimit="10" points="556.226,301.077 556.226,243.616 
				622.679,243.616 622.679,301.204 			"/>
			
				<line fill="none" stroke="#90BF3E" stroke-width="2" stroke-miterlimit="10" x1="621.306" y1="232.44" x2="621.306" y2="243.616"/>
			
				<line fill="none" stroke="#90BF3E" stroke-width="2" stroke-miterlimit="10" x1="614.295" y1="232.44" x2="614.295" y2="243.616"/>
			
				<line fill="none" stroke="#90BF3E" stroke-width="2" stroke-miterlimit="10" x1="607.284" y1="232.44" x2="607.284" y2="243.616"/>
			
				<line fill="none" stroke="#90BF3E" stroke-width="2" stroke-miterlimit="10" x1="600.273" y1="232.44" x2="600.273" y2="243.616"/>
			
				<line fill="none" stroke="#90BF3E" stroke-width="2" stroke-miterlimit="10" x1="593.263" y1="232.44" x2="593.263" y2="243.616"/>
			
				<line fill="none" stroke="#90BF3E" stroke-width="2" stroke-miterlimit="10" x1="586.251" y1="232.44" x2="586.251" y2="243.616"/>
			<line fill="none" stroke="#90BF3E" stroke-width="2" stroke-miterlimit="10" x1="579.24" y1="232.44" x2="579.24" y2="243.616"/>
			
				<line fill="none" stroke="#90BF3E" stroke-width="2" stroke-miterlimit="10" x1="572.229" y1="232.44" x2="572.229" y2="243.616"/>
			
				<line fill="none" stroke="#90BF3E" stroke-width="2" stroke-miterlimit="10" x1="565.219" y1="232.44" x2="565.219" y2="243.616"/>
			
				<line fill="none" stroke="#90BF3E" stroke-width="2" stroke-miterlimit="10" x1="558.208" y1="232.44" x2="558.208" y2="243.616"/>
			<path fill="none" stroke="#90BF3E" stroke-width="2" stroke-miterlimit="10" d="M614.192,243.616"/>
			<path fill="none" stroke="#90BF3E" stroke-width="2" stroke-miterlimit="10" d="M614.192,232.44"/>
			<path fill="none" stroke="#90BF3E" stroke-width="2" stroke-miterlimit="10" d="M609.917,243.616"/>
			<path fill="none" stroke="#90BF3E" stroke-width="2" stroke-miterlimit="10" d="M609.917,232.44"/>
			<path fill="none" stroke="#90BF3E" stroke-width="2" stroke-miterlimit="10" d="M606.097,243.616"/>
			<path fill="none" stroke="#90BF3E" stroke-width="2" stroke-miterlimit="10" d="M606.097,232.44"/>
			<path fill="none" stroke="#90BF3E" stroke-width="2" stroke-miterlimit="10" d="M601.975,232.44"/>
			<path fill="none" stroke="#90BF3E" stroke-width="2" stroke-miterlimit="10" d="M601.975,243.616"/>
			<path fill="none" stroke="#90BF3E" stroke-width="2" stroke-miterlimit="10" d="M601.975,232.44"/>
			<path fill="none" stroke="#90BF3E" stroke-width="2" stroke-miterlimit="10" d="M597.547,243.616"/>
			<path fill="none" stroke="#90BF3E" stroke-width="2" stroke-miterlimit="10" d="M597.547,232.44"/>
			<path fill="none" stroke="#90BF3E" stroke-width="2" stroke-miterlimit="10" d="M593.422,243.616"/>
			<path fill="none" stroke="#90BF3E" stroke-width="2" stroke-miterlimit="10" d="M593.422,232.44"/>
			<path fill="none" stroke="#90BF3E" stroke-width="2" stroke-miterlimit="10" d="M589.564,243.616"/>
			<path fill="none" stroke="#90BF3E" stroke-width="2" stroke-miterlimit="10" d="M589.452,232.44"/>
			<path fill="none" stroke="#90BF3E" stroke-width="2" stroke-miterlimit="10" d="M585.443,243.616"/>
			<path fill="none" stroke="#90BF3E" stroke-width="2" stroke-miterlimit="10" d="M585.443,232.44"/>
			<path fill="none" stroke="#90BF3E" stroke-width="2" stroke-miterlimit="10" d="M581.317,243.616"/>
			<path fill="none" stroke="#90BF3E" stroke-width="2" stroke-miterlimit="10" d="M581.317,232.44"/>
			<path fill="none" stroke="#90BF3E" stroke-width="2" stroke-miterlimit="10" d="M577.195,243.616"/>
			<path fill="none" stroke="#90BF3E" stroke-width="2" stroke-miterlimit="10" d="M577.195,232.44"/>
			<path fill="none" stroke="#90BF3E" stroke-width="2" stroke-miterlimit="10" d="M572.842,243.616"/>
			<path fill="none" stroke="#90BF3E" stroke-width="2" stroke-miterlimit="10" d="M572.842,232.44"/>
			<path fill="none" stroke="#90BF3E" stroke-width="2" stroke-miterlimit="10" d="M569.06,243.616"/>
			<path fill="none" stroke="#90BF3E" stroke-width="2" stroke-miterlimit="10" d="M569.06,232.44"/>
			<path fill="none" stroke="#90BF3E" stroke-width="2" stroke-miterlimit="10" d="M564.826,243.616"/>
			<path fill="none" stroke="#90BF3E" stroke-width="2" stroke-miterlimit="10" d="M564.826,232.44"/>
			<path fill="none" stroke="#90BF3E" stroke-width="2" stroke-miterlimit="10" d="M560.586,243.616"/>
			<path fill="none" stroke="#90BF3E" stroke-width="2" stroke-miterlimit="10" d="M560.586,232.44"/>
			<path fill="none" stroke="#90BF3E" stroke-width="2" stroke-miterlimit="10" d="M622.679,232.44"/>
			<polyline fill="none" stroke="#90BF3E" stroke-width="2" stroke-miterlimit="10" points="556.226,243.616 552.644,243.616 
				552.644,232.44 622.679,232.44 626.87,232.44 626.87,243.616 622.679,243.616 			"/>
			<path fill="none" stroke="#90BF3E" stroke-width="2" stroke-miterlimit="10" d="M556.226,232.44"/>
			<polyline fill="none" stroke="#90BF3E" stroke-width="2" stroke-miterlimit="10" points="552.644,232.44 551.341,227.058 
				627.788,227.058 626.87,232.44 			"/>
			<path fill="none" stroke="#90BF3E" stroke-width="2" stroke-miterlimit="10" d="M623.15,198.084"/>
			<polyline fill="none" stroke="#90BF3E" stroke-width="2" stroke-miterlimit="10" points="617.158,198.209 617.255,165.087 
				562.396,165.087 562.396,196.989 			"/>
			<polyline fill="none" stroke="#90BF3E" stroke-width="2" stroke-miterlimit="10" points="564.996,165.217 564.996,154.35 
				613.908,154.35 613.908,165.217 			"/>
			<polyline fill="none" stroke="#90BF3E" stroke-width="1.5" stroke-miterlimit="10" points="569.06,153.255 569.06,154.22 
				569.06,143.353 609.917,143.353 609.917,154.22 609.917,153.255 			"/>
			<polyline fill="none" stroke="#90BF3E" stroke-width="1.5" stroke-miterlimit="10" points="569.06,143.353 565.739,143.353 
				565.739,139.007 613.275,139.007 613.275,143.353 609.917,143.353 			"/>
			
				<line fill="none" stroke="#90BF3E" stroke-width="2" stroke-miterlimit="10" x1="543.761" y1="441.739" x2="635.754" y2="441.739"/>
			
				<line fill="none" stroke="#90BF3E" stroke-width="1.5" stroke-miterlimit="10" x1="544.09" y1="451.589" x2="634.727" y2="451.589"/>
			
				<line fill="none" stroke="#90BF3E" stroke-width="1.5" stroke-miterlimit="10" x1="544.857" y1="456.454" x2="634.28" y2="456.454"/>
			
				<line fill="none" stroke="#90BF3E" stroke-width="1.5" stroke-miterlimit="10" x1="544.857" y1="469.205" x2="634.28" y2="469.205"/>
			<path fill="none" stroke="#90BF3E" stroke-width="2" stroke-miterlimit="10" d="M552.644,438.43"/>
			<path fill="none" stroke="#90BF3E" stroke-width="2" stroke-miterlimit="10" d="M599.46,430.733v-61.846v0.078
				c0-7.859-4.367-14.23-9.753-14.23c-5.385,0-9.75,6.371-9.75,14.23v-0.078v61.846"/>
			<path fill="none" stroke="#90BF3E" stroke-width="1.5" stroke-miterlimit="10" d="M628.325,342.202v-13.82v0.05
				c0-5.163-2.203-6.789-4.919-6.789c-2.714,0-4.916,1.626-4.916,6.789v-0.05v15.563"/>
			<path fill="none" stroke="#90BF3E" stroke-width="1.5" stroke-miterlimit="10" d="M614.8,339.508v-11.126v0.05
				c0-5.163-2.203-6.789-4.919-6.789c-2.713,0-4.915,1.626-4.915,6.789v-0.05v12.341"/>
			<path fill="none" stroke="#90BF3E" stroke-width="1.5" stroke-miterlimit="10" d="M601.274,343.945v-15.563v0.05
				c0-5.163-2.203-6.789-4.918-6.789c-2.714,0-4.916,1.626-4.916,6.789v-0.05v11.126"/>
			<path fill="none" stroke="#90BF3E" stroke-width="1.5" stroke-miterlimit="10" d="M587.749,339.508v-11.126v0.05
				c0-5.163-2.202-6.789-4.917-6.789c-2.715,0-4.917,1.626-4.917,6.789v-0.05v15.036"/>
			<path fill="none" stroke="#90BF3E" stroke-width="1.5" stroke-miterlimit="10" d="M574.224,339.772v-11.39v0.05
				c0-5.163-2.202-6.789-4.918-6.789c-2.715,0-4.917,1.626-4.917,6.789v-0.05v11.39"/>
			<path fill="none" stroke="#90BF3E" stroke-width="1.5" stroke-miterlimit="10" d="M560.699,344.633v-16.251v0.05
				c0-5.163-2.202-6.789-4.918-6.789c-2.714,0-4.917,1.626-4.917,6.789v-0.05v13.82"/>
			<path fill="none" stroke="#90BF3E" stroke-width="1.5" stroke-miterlimit="10" d="M627.097,347.995v-3.747v0.036
				c0-3.713-1.38-4.882-3.083-4.882c-1.702,0-3.083,1.169-3.083,4.882v-0.036v3.747H627.097z"/>
			<path fill="none" stroke="#90BF3E" stroke-width="1.5" stroke-miterlimit="10" d="M618.49,347.995v-3.747v0.036
				c0-3.713-1.38-4.882-3.083-4.882c-1.702,0-3.082,1.169-3.082,4.882v-0.036v3.747H618.49z"/>
			<path fill="none" stroke="#90BF3E" stroke-width="1.5" stroke-miterlimit="10" d="M609.884,347.995v-3.747v0.036
				c0-3.713-1.38-4.882-3.083-4.882c-1.702,0-3.083,1.169-3.083,4.882v-0.036v3.747H609.884z"/>
			<path fill="none" stroke="#90BF3E" stroke-width="1.5" stroke-miterlimit="10" d="M601.276,347.995v-3.747v0.036
				c0-3.713-1.38-4.882-3.083-4.882c-1.702,0-3.082,1.169-3.082,4.882v-0.036v3.747H601.276z"/>
			<path fill="none" stroke="#90BF3E" stroke-width="1.5" stroke-miterlimit="10" d="M592.67,347.995v-3.747v0.036
				c0-3.713-1.381-4.882-3.084-4.882c-1.701,0-3.082,1.169-3.082,4.882v-0.036v3.747H592.67z"/>
			<path fill="none" stroke="#90BF3E" stroke-width="1.5" stroke-miterlimit="10" d="M584.062,347.995v-3.747v0.036
				c0-3.713-1.38-4.882-3.083-4.882c-1.702,0-3.083,1.169-3.083,4.882v-0.036v3.747H584.062z"/>
			<path fill="none" stroke="#90BF3E" stroke-width="1.5" stroke-miterlimit="10" d="M575.456,347.995v-3.747v0.036
				c0-3.713-1.381-4.882-3.084-4.882c-1.702,0-3.082,1.169-3.082,4.882v-0.036v3.747H575.456z"/>
			<path fill="none" stroke="#90BF3E" stroke-width="1.5" stroke-miterlimit="10" d="M566.848,347.995v-3.747v0.036
				c0-3.713-1.38-4.882-3.083-4.882c-1.702,0-3.081,1.169-3.081,4.882v-0.036v3.747H566.848z"/>
			<path fill="none" stroke="#90BF3E" stroke-width="1.5" stroke-miterlimit="10" d="M558.019,347.995v-3.747v0.036
				c0-3.713-1.379-4.882-3.082-4.882c-1.702,0-3.082,1.169-3.082,4.882v-0.036v3.747H558.019z"/>
			<path fill="none" stroke="#90BF3E" stroke-width="2" stroke-miterlimit="10" d="M568.537,430.733v-61.846v0.078
				c0-7.859-4.363-14.23-9.753-14.23c-2.315,0-4.445,1.18-6.121,3.153"/>
			<path fill="none" stroke="#90BF3E" stroke-width="2" stroke-miterlimit="10" d="M611.07,430.733v-61.846v0.078
				c0-7.859,4.365-14.23,9.754-14.23c2.315,0,4.444,1.18,6.121,3.153"/>
			<path fill="none" stroke="#90BF3E" stroke-width="2" stroke-miterlimit="10" d="M597.506,300.41v-36.703v0.07
				c0-7.058-3.92-12.779-8.759-12.779c-4.834,0-8.755,5.722-8.755,12.779v0.261v34.007"/>
			<path fill="none" stroke="#90BF3E" stroke-width="2" stroke-miterlimit="10" d="M568.873,300.41v-36.703v0.07
				c0-7.058-3.92-12.779-8.759-12.779c-2.079,0-2.688,0.405-4.193,2.177"/>
			<path fill="none" stroke="#90BF3E" stroke-width="2" stroke-miterlimit="10" d="M608.55,300.41v-36.703v0.07
				c0-7.058,3.92-12.779,8.759-12.779c2.079,0,3.992,1.06,5.497,2.831"/>
			<path fill="none" stroke="#90BF3E" stroke-width="2" stroke-miterlimit="10" d="M571.831,368.887"/>
			<path fill="none" stroke="#90BF3E" stroke-width="2" stroke-miterlimit="10" d="M573.639,431.414"/>
			<polyline fill="none" stroke="#90BF3E" stroke-width="1.5" stroke-miterlimit="10" points="600.691,196.251 600.691,177.903 
				613.879,177.903 613.879,196.73 			"/>
			<polyline fill="none" stroke="#90BF3E" stroke-width="1.5" stroke-miterlimit="10" points="583.087,201.43 583.087,177.903 
				596.274,177.903 596.274,201.43 			"/>
			<polyline fill="none" stroke="#90BF3E" stroke-width="1.5" stroke-miterlimit="10" points="565.636,196.73 565.636,177.903 
				578.824,177.903 578.824,196.73 			"/>
			
				<line fill="none" stroke="#90BF3E" stroke-width="2" stroke-miterlimit="10" x1="605.366" y1="348.194" x2="605.366" y2="430.22"/>
			
				<line fill="none" stroke="#90BF3E" stroke-width="2" stroke-miterlimit="10" x1="573.837" y1="348.194" x2="573.837" y2="430.22"/>
			
				<line fill="none" stroke="#90BF3E" stroke-width="2" stroke-miterlimit="10" x1="603.555" y1="244.668" x2="603.555" y2="296.536"/>
			
				<line fill="none" stroke="#90BF3E" stroke-width="2" stroke-miterlimit="10" x1="574.592" y1="243.783" x2="574.592" y2="295.65"/>
			<g>
				<path fill="#90BF3E" stroke="#90BF3E" stroke-miterlimit="10" d="M607.638,200.767l3.512-1.048l0.532-3.143v-6.126v0.054
					c0-5.522-1.92-7.261-4.286-7.261c-2.368,0-4.287,1.738-4.287,7.261v-0.054v6.589"/>
				<path fill="#90BF3E" stroke="#90BF3E" stroke-miterlimit="10" d="M589.518,195.919l2.79,2.912l1.597-0.313v-7.999v0.054
					c0-5.523-1.919-7.261-4.287-7.261c-2.366,0-4.287,1.738-4.287,7.261v-0.054v7.26"/>
				<path fill="#90BF3E" stroke="#90BF3E" stroke-miterlimit="10" d="M571.124,201.333l3.143-4.018l2.361-0.276v-6.521v0.054
					c0-5.523-1.92-7.261-4.286-7.261c-2.368,0-4.287,1.738-4.287,7.261v-0.054v8.075"/>
				<path fill="#90BF3E" stroke="#90BF3E" stroke-miterlimit="10" d="M612.004,140.486c0-16.444-10.095-28.295-22.552-28.295
					c-12.455,0-22.553,11.851-22.553,28.295"/>
			</g>
			<path fill="none" stroke="#90BF3E" stroke-width="2" stroke-miterlimit="10" d="M576.968,196.604"/>
			<path fill="none" stroke="#90BF3E" stroke-width="2" stroke-miterlimit="10" d="M576.968,165.81"/>
			
				<line fill="none" stroke="#90BF3E" stroke-width="2" stroke-miterlimit="10" x1="547.445" y1="313.728" x2="631.147" y2="313.728"/>
			<line fill="none" stroke="#90BF3E" stroke-miterlimit="10" x1="614.651" y1="172.726" x2="616.356" y2="170.878"/>
			
				<line fill="none" stroke="#90BF3E" stroke-width="1.5" stroke-miterlimit="10" x1="616.356" y1="170.878" x2="563.358" y2="170.878"/>
			
				<line fill="none" stroke="#90BF3E" stroke-width="1.5" stroke-miterlimit="10" x1="569.553" y1="154.612" x2="569.526" y2="164.962"/>
			
				<line fill="none" stroke="#90BF3E" stroke-width="1.5" stroke-miterlimit="10" x1="575.241" y1="154.631" x2="575.216" y2="164.981"/>
			
				<line fill="none" stroke="#90BF3E" stroke-width="1.5" stroke-miterlimit="10" x1="580.93" y1="154.649" x2="580.904" y2="164.999"/>
			
				<line fill="none" stroke="#90BF3E" stroke-width="1.5" stroke-miterlimit="10" x1="586.62" y1="154.668" x2="586.594" y2="164.018"/>
			
				<line fill="none" stroke="#90BF3E" stroke-width="1.5" stroke-miterlimit="10" x1="592.308" y1="154.687" x2="592.284" y2="164.037"/>
			
				<line fill="none" stroke="#90BF3E" stroke-width="1.5" stroke-miterlimit="10" x1="597.999" y1="154.706" x2="597.972" y2="164.056"/>
			
				<line fill="none" stroke="#90BF3E" stroke-width="1.5" stroke-miterlimit="10" x1="603.688" y1="154.725" x2="603.662" y2="164.075"/>
			
				<line fill="none" stroke="#90BF3E" stroke-width="1.5" stroke-miterlimit="10" x1="609.378" y1="154.743" x2="609.351" y2="164.093"/>
		</g>
		<g>
			<polyline fill="none" stroke="#90BF3E" stroke-width="2" stroke-miterlimit="10" points="316.997,469.492 316.997,424.494 
				311.858,424.494 305.16,431.372 236.841,431.372 229.877,424.516 225.006,424.494 225.006,464.989 			"/>
			<polyline fill="none" stroke="#90BF3E" stroke-width="2" stroke-miterlimit="10" points="308.19,428.518 308.19,348.942 
				233.438,348.942 233.438,428.518 			"/>
			<path fill="none" stroke="#90BF3E" stroke-width="2" stroke-miterlimit="10" d="M313.404,318.773v21.352
				c0,0-5.214,2.233-5.214,8.453"/>
			<path fill="none" stroke="#90BF3E" stroke-width="2" stroke-miterlimit="10" d="M233.438,348.48c0,0-0.523-7.012-4.857-8.09
				v-21.618"/>
			<path fill="none" stroke="#90BF3E" stroke-width="2" stroke-miterlimit="10" d="M313.404,296.007v22.889H228.58v-22.889
				c0,0,2.878-0.435,3.637,0c1.462,0.837,2.756,5.589,2.756,5.589h4.14c0,0,1.723-4.769,3.259-5.589
				c0.695-0.372,2.599-0.416,3.262,0c1.47,0.925,3.384,5.589,3.384,5.589h3.39c0,0,1.829-4.773,3.384-5.589
				c0.724-0.38,2.662-0.381,3.386,0c1.549,0.816,3.355,5.589,3.355,5.589h3.288c0,0,1.936-4.776,3.51-5.589
				c0.728-0.376,2.665-0.385,3.386,0c1.536,0.82,3.259,5.589,3.259,5.589h3.389c0,0,1.83-4.773,3.386-5.589
				c0.751-0.394,2.762-0.399,3.508,0c1.536,0.82,3.262,5.589,3.262,5.589h3.635c0,0,1.723-4.769,3.26-5.589
				c0.746-0.399,2.764-0.399,3.513,0c1.534,0.82,3.258,5.589,3.258,5.589h3.136c0,0,1.733-4.65,3.308-5.462
				c0.701-0.361,3.467-0.126,3.467-0.126H313.404z"/>
			<path fill="none" stroke="#90BF3E" stroke-width="2" stroke-miterlimit="10" d="M232.103,227.233v-30.542
				c0,0,2.619-0.383,3.311,0c1.329,0.738,2.507,4.929,2.507,4.929h3.767c0,0,1.567-4.206,2.964-4.929
				c0.632-0.328,2.367-0.367,2.971,0c1.337,0.815,3.077,4.929,3.077,4.929h3.086c0,0,1.664-4.209,3.08-4.929
				c0.658-0.335,2.421-0.336,3.08,0c1.411,0.72,3.054,4.929,3.054,4.929h2.993c0,0,1.76-4.212,3.193-4.929
				c0.662-0.331,2.425-0.34,3.081,0c1.398,0.723,2.966,4.929,2.966,4.929h3.084c0,0,1.664-4.209,3.079-4.929
				c0.685-0.348,2.515-0.352,3.194,0c1.396,0.723,2.968,4.929,2.968,4.929h1.97h1.338c0,0,1.567-4.206,2.967-4.929
				c0.679-0.352,2.514-0.352,3.196,0c1.397,0.723,2.965,4.929,2.965,4.929h2.853c0,0,1.577-4.101,3.008-4.817
				c0.639-0.318,3.156-0.111,3.156-0.111h0.279v30.542"/>
			<polyline fill="none" stroke="#90BF3E" stroke-width="2" stroke-miterlimit="10" points="237.471,301.363 237.471,243.903 
				303.923,243.903 303.923,301.491 			"/>
			
				<line fill="none" stroke="#90BF3E" stroke-width="2" stroke-miterlimit="10" x1="302.551" y1="232.726" x2="302.551" y2="243.903"/>
			
				<line fill="none" stroke="#90BF3E" stroke-width="2" stroke-miterlimit="10" x1="295.54" y1="232.726" x2="295.54" y2="243.903"/>
			
				<line fill="none" stroke="#90BF3E" stroke-width="2" stroke-miterlimit="10" x1="288.529" y1="232.726" x2="288.529" y2="243.903"/>
			
				<line fill="none" stroke="#90BF3E" stroke-width="2" stroke-miterlimit="10" x1="281.518" y1="232.726" x2="281.518" y2="243.903"/>
			
				<line fill="none" stroke="#90BF3E" stroke-width="2" stroke-miterlimit="10" x1="274.507" y1="232.726" x2="274.507" y2="243.903"/>
			
				<line fill="none" stroke="#90BF3E" stroke-width="2" stroke-miterlimit="10" x1="267.496" y1="232.726" x2="267.496" y2="243.903"/>
			
				<line fill="none" stroke="#90BF3E" stroke-width="2" stroke-miterlimit="10" x1="260.485" y1="232.726" x2="260.485" y2="243.903"/>
			
				<line fill="none" stroke="#90BF3E" stroke-width="2" stroke-miterlimit="10" x1="253.474" y1="232.726" x2="253.474" y2="243.903"/>
			
				<line fill="none" stroke="#90BF3E" stroke-width="2" stroke-miterlimit="10" x1="246.463" y1="232.726" x2="246.463" y2="243.903"/>
			
				<line fill="none" stroke="#90BF3E" stroke-width="2" stroke-miterlimit="10" x1="239.452" y1="232.726" x2="239.452" y2="243.903"/>
			<polyline fill="none" stroke="#90BF3E" stroke-width="2" stroke-miterlimit="10" points="237.471,243.903 233.888,243.903 
				233.888,232.726 303.923,232.726 308.115,232.726 308.115,243.903 303.923,243.903 			"/>
			<polyline fill="none" stroke="#90BF3E" stroke-width="2" stroke-miterlimit="10" points="233.888,232.726 232.586,227.344 
				309.033,227.344 308.115,232.726 			"/>
			<polyline fill="none" stroke="#90BF3E" stroke-width="2" stroke-miterlimit="10" points="298.403,198.496 298.5,165.373 
				243.641,165.373 243.641,197.276 			"/>
			<polyline fill="none" stroke="#90BF3E" stroke-width="2" stroke-miterlimit="10" points="246.241,165.504 246.241,154.637 
				295.153,154.637 295.153,165.504 			"/>
			<polyline fill="none" stroke="#90BF3E" stroke-width="1.5" stroke-miterlimit="10" points="250.305,153.542 250.305,154.507 
				250.305,143.639 291.161,143.639 291.161,154.507 291.161,153.542 			"/>
			<polyline fill="none" stroke="#90BF3E" stroke-width="1.5" stroke-miterlimit="10" points="250.305,143.639 246.984,143.639 
				246.984,139.293 294.52,139.293 294.52,143.639 291.161,143.639 			"/>
			
				<line fill="none" stroke="#90BF3E" stroke-width="2" stroke-miterlimit="10" x1="225.006" y1="442.026" x2="316.997" y2="442.026"/>
			
				<line fill="none" stroke="#90BF3E" stroke-width="1.5" stroke-miterlimit="10" x1="226.55" y1="451.875" x2="315.972" y2="451.875"/>
			
				<line fill="none" stroke="#90BF3E" stroke-width="1.5" stroke-miterlimit="10" x1="226.102" y1="456.738" x2="316.74" y2="456.738"/>
			
				<line fill="none" stroke="#90BF3E" stroke-width="1.5" stroke-miterlimit="10" x1="226.102" y1="469.492" x2="315.525" y2="469.492"/>
			<path fill="none" stroke="#90BF3E" stroke-width="2" stroke-miterlimit="10" d="M280.703,431.02v-61.846v0.078
				c0-7.859-4.366-14.23-9.752-14.23c-5.385,0-9.75,6.371-9.75,14.23v-0.078v61.846"/>
			<path fill="none" stroke="#90BF3E" stroke-width="1.5" stroke-miterlimit="10" d="M309.57,342.489v-13.82v0.05
				c0-5.164-2.203-6.789-4.919-6.789c-2.714,0-4.916,1.625-4.916,6.789v-0.05v15.563"/>
			<path fill="none" stroke="#90BF3E" stroke-width="1.5" stroke-miterlimit="10" d="M296.044,339.795v-11.126v0.05
				c0-5.164-2.203-6.789-4.918-6.789c-2.714,0-4.917,1.625-4.917,6.789v-0.05v12.126"/>
			<path fill="none" stroke="#90BF3E" stroke-width="1.5" stroke-miterlimit="10" d="M282.519,344.232v-15.563v0.05
				c0-5.164-2.203-6.789-4.917-6.789c-2.714,0-4.917,1.625-4.917,6.789v-0.05v11.126"/>
			<path fill="none" stroke="#90BF3E" stroke-width="1.5" stroke-miterlimit="10" d="M268.994,339.795v-11.126v0.05
				c0-5.164-2.203-6.789-4.918-6.789c-2.714,0-4.917,1.625-4.917,6.789v2.38v12.605"/>
			<path fill="none" stroke="#90BF3E" stroke-width="1.5" stroke-miterlimit="10" d="M255.469,340.058v-11.39v0.05
				c0-5.164-2.203-6.789-4.918-6.789c-2.714,0-4.917,1.625-4.917,6.789v-0.05v11.39"/>
			<path fill="none" stroke="#90BF3E" stroke-width="1.5" stroke-miterlimit="10" d="M241.944,344.92v-16.251v0.05
				c0-5.164-2.203-6.789-4.918-6.789c-2.714,0-4.917,1.625-4.917,6.789v-0.05v13.82"/>
			<path fill="none" stroke="#90BF3E" stroke-width="1.5" stroke-miterlimit="10" d="M308.342,348.282v-3.747v0.036
				c0-3.713-1.379-4.883-3.082-4.883c-1.703,0-3.083,1.169-3.083,4.883v-0.036v3.747H308.342z"/>
			<path fill="none" stroke="#90BF3E" stroke-width="1.5" stroke-miterlimit="10" d="M299.735,348.282v-3.747v0.036
				c0-3.713-1.38-4.883-3.082-4.883c-1.703,0-3.083,1.169-3.083,4.883v-0.036v3.747H299.735z"/>
			<path fill="none" stroke="#90BF3E" stroke-width="1.5" stroke-miterlimit="10" d="M291.128,348.282v-3.747v0.036
				c0-3.713-1.38-4.883-3.082-4.883c-1.704,0-3.083,1.169-3.083,4.883v-0.036v3.747H291.128z"/>
			<path fill="none" stroke="#90BF3E" stroke-width="1.5" stroke-miterlimit="10" d="M282.521,348.282v-3.747v0.036
				c0-3.713-1.38-4.883-3.083-4.883c-1.703,0-3.082,1.169-3.082,4.883v-0.036v3.747H282.521z"/>
			<path fill="none" stroke="#90BF3E" stroke-width="1.5" stroke-miterlimit="10" d="M273.914,348.282v-3.747v0.036
				c0-3.713-1.38-4.883-3.083-4.883c-1.703,0-3.082,1.169-3.082,4.883v-0.036v3.747H273.914z"/>
			<path fill="none" stroke="#90BF3E" stroke-width="1.5" stroke-miterlimit="10" d="M265.306,348.282v-3.747v0.036
				c0-3.713-1.379-4.883-3.082-4.883c-1.703,0-3.082,1.169-3.082,4.883v-0.036v3.747H265.306z"/>
			<path fill="none" stroke="#90BF3E" stroke-width="1.5" stroke-miterlimit="10" d="M256.7,348.282v-3.747v0.036
				c0-3.713-1.379-4.883-3.082-4.883c-1.703,0-3.083,1.169-3.083,4.883v-0.036v3.747H256.7z"/>
			<path fill="none" stroke="#90BF3E" stroke-width="1.5" stroke-miterlimit="10" d="M248.093,348.282v-3.747v0.036
				c0-3.713-1.38-4.883-3.082-4.883c-1.703,0-3.082,1.169-3.082,4.883v-0.036v3.747H248.093z"/>
			<path fill="none" stroke="#90BF3E" stroke-width="1.5" stroke-miterlimit="10" d="M239.264,348.282v-3.747v0.036
				c0-3.713-1.379-4.883-3.083-4.883c-1.703,0-3.082,1.169-3.082,4.883v-0.036v3.747H239.264z"/>
			<path fill="none" stroke="#90BF3E" stroke-width="2" stroke-miterlimit="10" d="M249.782,431.02v-61.846v0.078
				c0-7.859-4.365-14.23-9.753-14.23c-2.315,0-4.444,1.18-6.121,3.152"/>
			<path fill="none" stroke="#90BF3E" stroke-width="2" stroke-miterlimit="10" d="M292.315,431.02v-61.846v0.078
				c0-7.859,4.364-14.23,9.753-14.23c2.315,0,4.444,1.18,6.121,3.152"/>
			<path fill="none" stroke="#90BF3E" stroke-width="2" stroke-miterlimit="10" d="M278.751,300.697v-36.702v0.07
				c0-7.058-3.92-12.78-8.759-12.78c-4.834,0-8.755,5.722-8.755,12.78v0.26v34.008"/>
			<path fill="none" stroke="#90BF3E" stroke-width="2" stroke-miterlimit="10" d="M250.117,300.697v-36.702v0.07
				c0-7.058-3.92-12.78-8.758-12.78c-2.08,0-2.688,0.405-4.193,2.177"/>
			<path fill="none" stroke="#90BF3E" stroke-width="2" stroke-miterlimit="10" d="M289.794,300.697v-36.702v0.07
				c0-7.058,3.92-12.78,8.759-12.78c2.08,0,3.992,1.06,5.497,2.832"/>
			<polyline fill="none" stroke="#90BF3E" stroke-width="1.5" stroke-miterlimit="10" points="281.935,195.537 281.935,178.19 
				295.123,178.19 295.123,197.016 			"/>
			<polyline fill="none" stroke="#90BF3E" stroke-width="1.5" stroke-miterlimit="10" points="264.332,201.933 264.332,178.19 
				277.519,178.19 277.519,201.933 			"/>
			<polyline fill="none" stroke="#90BF3E" stroke-width="1.5" stroke-miterlimit="10" points="246.881,197.016 246.881,178.19 
				260.068,178.19 260.068,197.016 			"/>
			
				<line fill="none" stroke="#90BF3E" stroke-width="2" stroke-miterlimit="10" x1="286.611" y1="348.48" x2="286.611" y2="430.507"/>
			
				<line fill="none" stroke="#90BF3E" stroke-width="2" stroke-miterlimit="10" x1="255.082" y1="348.48" x2="255.082" y2="430.507"/>
			<line fill="none" stroke="#90BF3E" stroke-width="2" stroke-miterlimit="10" x1="284.8" y1="244.955" x2="284.8" y2="295.823"/>
			
				<line fill="none" stroke="#90BF3E" stroke-width="2" stroke-miterlimit="10" x1="255.836" y1="244.284" x2="255.836" y2="295.936"/>
			<g>
				<path fill="#90BF3E" stroke="#90BF3E" stroke-miterlimit="10" d="M288.883,201.053l3.511-1.048l0.534-3.143v-6.126v0.055
					c0-5.523-1.92-7.261-4.287-7.261c-2.368,0-4.287,1.738-4.287,7.261v-0.055v6.589"/>
				<path fill="#90BF3E" stroke="#90BF3E" stroke-miterlimit="10" d="M270.763,196.205l3.421,3.045l0.966-0.447v-7.999v0.054
					c0-5.522-1.919-7.261-4.287-7.261c-2.367,0-4.287,1.739-4.287,7.261v-0.054v7.26"/>
				<path fill="#90BF3E" stroke="#90BF3E" stroke-miterlimit="10" d="M252.367,201.62l3.144-4.018l2.361-0.276v-6.521v0.054
					c0-5.522-1.92-7.261-4.287-7.261s-4.287,1.739-4.287,7.261v-0.054v8.075"/>
				<path fill="#90BF3E" stroke="#90BF3E" stroke-miterlimit="10" d="M293.248,140.773c0-16.444-10.095-28.295-22.551-28.295
					c-12.454,0-22.552,11.851-22.552,28.295"/>
			</g>
			<path fill="none" stroke="#90BF3E" stroke-width="2" stroke-miterlimit="10" d="M258.212,196.892"/>
			<path fill="none" stroke="#90BF3E" stroke-width="2" stroke-miterlimit="10" d="M258.212,166.096"/>
			
				<line fill="none" stroke="#90BF3E" stroke-width="2" stroke-miterlimit="10" x1="228.69" y1="314.014" x2="312.392" y2="314.014"/>
			<line fill="none" stroke="#90BF3E" stroke-miterlimit="10" x1="295.895" y1="173.013" x2="297.601" y2="171.164"/>
			
				<line fill="none" stroke="#90BF3E" stroke-width="1.5" stroke-miterlimit="10" x1="297.601" y1="171.164" x2="244.603" y2="171.164"/>
			
				<line fill="none" stroke="#90BF3E" stroke-width="1.5" stroke-miterlimit="10" x1="250.796" y1="155.114" x2="250.77" y2="164.249"/>
			
				<line fill="none" stroke="#90BF3E" stroke-width="1.5" stroke-miterlimit="10" x1="256.486" y1="155.133" x2="256.46" y2="164.268"/>
			
				<line fill="none" stroke="#90BF3E" stroke-width="1.5" stroke-miterlimit="10" x1="262.175" y1="155.151" x2="262.149" y2="164.286"/>
			
				<line fill="none" stroke="#90BF3E" stroke-width="1.5" stroke-miterlimit="10" x1="267.864" y1="155.17" x2="267.839" y2="164.305"/>
			
				<line fill="none" stroke="#90BF3E" stroke-width="1.5" stroke-miterlimit="10" x1="273.554" y1="155.189" x2="273.528" y2="164.324"/>
			
				<line fill="none" stroke="#90BF3E" stroke-width="1.5" stroke-miterlimit="10" x1="279.243" y1="155.208" x2="279.217" y2="164.342"/>
			
				<line fill="none" stroke="#90BF3E" stroke-width="1.5" stroke-miterlimit="10" x1="284.933" y1="155.227" x2="284.907" y2="164.362"/>
			
				<line fill="none" stroke="#90BF3E" stroke-width="1.5" stroke-miterlimit="10" x1="290.622" y1="155.245" x2="290.596" y2="164.38"/>
		</g>
		<g>
			<path fill="#0A5C2F" d="M432.631,392.772c0-0.001,0-1.884,0-4.838c2.186-0.779,3.762-2.845,3.762-5.299
				c0-2.454-1.576-4.521-3.762-5.299c0-1.903,0-3.873,0-5.848c3.314-0.843,5.778-3.823,5.778-7.401c0-3.578-2.464-6.557-5.778-7.4
				c0-3.455,0-5.95,0-6.712h3.358v-6.042c14.21-0.067,29.645-9.947,32.813-24.41c0.088-0.403-1.049,0.695-0.977,0.292
				c-5.574,9.563-18.331,13.42-29.726,10.924c-14.14-3.098-23.091-17.071-19.995-31.21c1.675-7.644,6.54-13.746,12.878-17.274
				c-12.262,1.937-22.681,11.144-25.498,24.003c-3.393,15.488,5.43,30.784,20.02,35.906v7.81h2.822v6.879
				c-3.039,1.017-5.242,3.853-5.242,7.233c0,3.381,2.203,6.218,5.242,7.234v6.233c-1.9,0.909-3.227,2.833-3.227,5.081
				c0,2.247,1.326,4.172,3.227,5.082v4.999"/>
			<g>
				<path fill="none" stroke="#0A5C2F" stroke-width="6" stroke-miterlimit="10" d="M551.079,511.547
					c0-61.327-54.15-111.043-120.95-111.043c-66.799,0-120.951,49.716-120.951,111.043"/>
				<path fill="none" stroke="#90BF3E" stroke-width="6" stroke-miterlimit="10" d="M551.079,505.813
					c0-61.328-54.151-111.044-120.95-111.044c-66.8,0-120.952,49.716-120.952,111.044"/>
				<path fill="#90BF3E" d="M435.588,391.992c0-0.001,0-1.885,0-4.838c2.186-0.778,3.763-2.846,3.763-5.299
					c0-2.455-1.576-4.522-3.763-5.3c0-1.902,0-3.872,0-5.848c3.315-0.843,5.779-3.823,5.779-7.4c0-3.578-2.464-6.558-5.779-7.401
					c0-3.455,0-5.95,0-6.711h3.36v-6.041c14.209-0.067,26.985-9.925,30.154-24.387c0.088-0.404,0.13-0.808,0.201-1.211
					c-3.088,5.298-15.395,15.218-28.245,12.404c-14.14-3.098-23.092-17.071-19.995-31.211c1.674-7.643,6.539-13.746,12.878-17.274
					c-12.262,1.936-22.68,11.145-25.498,24.003c-3.392,15.488,5.431,30.785,20.021,35.906v7.81h2.822v6.878
					c-3.04,1.017-5.244,3.853-5.244,7.234c0,3.38,2.204,6.217,5.244,7.233v6.233c-1.901,0.909-3.228,2.833-3.228,5.082
					c0,2.248,1.326,4.172,3.228,5.081v4.999"/>
				<path fill="#0A5C2F" d="M431.354,656.002c0,0-80.608-227.773-313.556-228.512l16.269,51.027
					C134.068,478.517,322.153,442.28,431.354,656.002z"/>
				<path fill="#90BF3E" d="M431.354,656.002c0,0-77.157-186.112-279.292-183.154l15.777,43.878
					C167.84,516.725,333.985,497.497,431.354,656.002z"/>
				<path fill="#D7DD22" d="M431.354,656.002c0,0-78.104-155.179-236.874-139.833l12.8,35.067
					C207.281,551.236,310.32,532.01,431.354,656.002z"/>
				<path fill="#0A5C2F" d="M431.354,656.002c0,0,80.607-227.773,313.556-228.512l-16.27,51.027
					C728.64,478.517,540.556,442.28,431.354,656.002z"/>
				<path fill="#90BF3E" d="M431.354,656.002c0,0,77.157-186.112,279.293-183.154l-15.779,43.878
					C694.868,516.725,528.723,497.497,431.354,656.002z"/>
				<path fill="#D7DD22" d="M431.354,656.002c0,0,78.104-155.179,236.873-139.833l-12.799,35.067
					C655.429,551.236,552.388,532.01,431.354,656.002z"/>
			</g>
		</g>
	</g>
</g>
</svg>
