<?xml version="1.0" encoding="utf-8"?>
<!-- Generator: Adobe Illustrator 17.0.0, SVG Export Plug-In . SVG Version: 6.00 Build 0)  -->
<!DOCTYPE svg PUBLIC "-//W3C//DTD SVG 1.1//EN" "http://www.w3.org/Graphics/SVG/1.1/DTD/svg11.dtd">
<svg version="1.1" id="Layer_1" xmlns="http://www.w3.org/2000/svg" xmlns:xlink="http://www.w3.org/1999/xlink" x="0px" y="0px"
	 width="1739.652px" height="1859.628px" viewBox="0 0 1739.652 1859.628" enable-background="new 0 0 1739.652 1859.628"
	 xml:space="preserve">
<g>
	<g>
		<g id="XMLID_347_">
			<polygon id="XMLID_414_" fill="#39B54A" points="1120.038,800.763 1120.038,744.763 1105.535,734.877 1105.535,701.609 
				1105.535,654.069 1029.226,602.04 820.315,639.864 820.315,687.394 1029.226,649.58 1030.149,683.476 784.059,728.032 
				784.059,784.022 1030.149,739.476 			"/>
			<polygon id="XMLID_664_" fill="#39B54A" points="1044.704,602.12 1044.704,483.663 1014.893,483.663 1014.893,594.161 
				1029.226,591.564 			"/>
			<path fill="#39B54A" d="M1393.986,1525.908c-1.233,1.645-2.377,3.374-3.438,5.16c1.016-0.758,2.046-1.49,3.089-2.199
				c0.226-1.175,0.523-2.323,0.889-3.443C1394.345,1525.587,1394.166,1525.748,1393.986,1525.908z"/>
			<path fill="#FFFFFF" d="M1328.412,1369.152c6.943-5.402,12.684-12.728,17.298-20.013c3.168-5.003,6.309-10.469,8.431-16.218
				v-259.299l-141.044-63.057l-141.044,63.057V1619.9c8.822-3.857,17.914-7.098,25.729-12.858v-513.723l115.315-51.557
				l115.315,51.557V1369.152z"/>
			<path fill="#FFFFFF" d="M1165.275,1557.101c10.177-7.728,22.241-13.813,31.214-22.985c6.709-6.858,12.255-14.823,16.608-23.381
				v-455.142l-102.685,45.911v487.353C1127.904,1576.948,1148.318,1569.979,1165.275,1557.101z"/>
			<path fill="#39B54A" d="M932.944,1384.427v-26.582c-0.403,0.039-0.834,0.037-1.289-0.004c-0.009,0.513-0.029,1.028-0.072,1.548
				c-0.153,1.881-1.291,3.093-2.68,3.653c-0.064,3.685-0.312,13.491,0.621,21.463
				C930.665,1384.482,931.805,1384.453,932.944,1384.427z"/>
			<path fill="#39B54A" d="M985.083,1660.533c8.034-1.955,16.082-3.872,24.171-5.55V765.762l-240.906,43.612v227.877
				c8.097,0.116,16.156,0.507,24.171,1.648V829.561l45.894-8.309v259.996c5.521,3.504,12.214,4.222,17.742,7.623
				c2.359,1.451,4.152,3.211,5.485,5.221V817.041l48.078-8.696v525.525c12.287,0.938,22.069,11.249,21.938,23.817
				c0.433,0.281,0.863,0.4,1.289,0.29V804.134l52.138-9.432V1660.533z"/>
			<path fill="#39B54A" d="M1038.259,761.202v875.534c7.051-1.863,13.123-5.573,19.29-9.258v-563.258l78.199-34.958V827.672
				L1038.259,761.202z"/>
		</g>
		<g>
			<path fill="#39B54A" d="M536.128,1029.075v-52.838l46.792,13.249c0.375-0.326,0.823-0.604,1.356-0.808
				c13.772-5.269,22.86-17.84,34.795-26.198c0.671-2.629,2.946-4.466,5.46-5.611v-0.148c0-1.479,0.802-2.873,2.077-3.62
				c1.358-0.796,2.868-0.683,4.233,0c0.372,0.186,0.735,0.384,1.095,0.586v-29.75l63.588,17.997v55.118l-63.588-17.998v-5.222
				c-0.037,0.023-0.068,0.05-0.106,0.073c-0.612,0.365-1.262,0.588-1.926,0.698c-0.52,2.155-1.175,4.274-1.932,6.358
				c0.882,0.673,1.521,1.699,1.611,3.094c0.101,1.55-0.128,3.013-0.605,4.398c25.08-0.246,48.168,11.08,72.315,16.259
				c11.05,2.37,24.188,2.858,35.396,6.822V905.995l-232.226-71.99l-0.694,0.372v217.168c3.378-4.494,8.349-8.192,12.492-11.073
				C522.523,1036.118,529.193,1032.288,536.128,1029.075z M536.128,896.807l63.588,18.005v55.118l-63.588-18.005V896.807z"/>
			<path fill="#39B54A" d="M447.302,1105.072c13.795-6.73,27.426-13.933,41.657-19.72V849.169l-50.06,26.636v236.38
				C440.709,1109.385,443.373,1106.989,447.302,1105.072z"/>
			<path fill="#39B54A" d="M401.057,1326.255c7.218-2.149,14.721-2.655,22.029-4.127v-431.53l-49.365,26.264v417.573
				C383.322,1333.681,391.918,1328.976,401.057,1326.255z"/>
			<path fill="#39B54A" d="M329.589,1399.986c9.371-0.44,18.635-1.311,27.908-2.741V931.993l-49.365,26.264v445.007
				C315.057,1401.03,322.273,1400.329,329.589,1399.986z"/>
		</g>
		<g>
			<g>
				<path fill="#FFFFFF" d="M954.046,1690.528c18.002-7.319,35.412-16.658,53.822-22.9v-269.019
					c-5.759-1.329-11.517-2.879-17.495-4.208c-19.271-4.43-38.538-8.638-58.03-12.403v-58.028
					c-9.967-2.879-20.155-5.758-30.341-8.195v-64.451c0-24.141-2.439-51.605-8.419-79.733
					c-6.204-28.128-16.168-56.699-31.672-83.055c-27.685-46.954-108.747-94.129-162.346-124.251v-13.51
					c0-9.745-5.094-19.047-13.51-24.584l-23.92-15.504l-1.329-12.624c5.98-1.55,9.967-5.316,9.967-12.624
					c0-6.645-7.309-12.625-13.067-16.168l-0.443-4.208c4.208-1.329,6.866-3.765,6.866-6.645c0-3.322-3.322-5.98-8.195-7.087
					l-1.55-14.618c2.658,0.221,5.316,0.221,7.973,0.221c51.162,0,93.244-38.759,98.559-88.592
					c-13.51,26.356-40.753,44.296-72.203,44.296c-44.961,0-81.284-36.323-81.284-81.062c0-31.45,18.161-58.914,44.296-72.203
					c-49.833,5.094-88.593,47.175-88.593,98.559c0,49.612,36.544,90.807,84.384,98.116l-1.772,15.282
					c-4.873,1.107-8.195,3.765-8.195,7.087c0,2.879,2.658,5.316,6.866,6.645l-0.443,4.208c-5.759,3.544-13.067,9.524-13.067,16.168
					c0,7.309,3.987,11.074,9.967,12.624l-1.329,12.624l-23.92,15.504c-8.416,5.537-13.51,14.839-13.51,24.584v13.51
					c-53.598,30.121-134.661,77.297-162.346,124.251c-31.007,52.713-39.866,114.727-40.088,162.789v64.451
					c-10.188,2.436-20.376,5.315-30.343,8.195v58.028c-19.49,3.765-38.759,7.973-58.028,12.403
					c-5.98,1.329-11.739,2.879-17.497,4.208v263.784c18.55,0.638,36.182,5.885,53.82,11.417v-82.069
					c0-21.484,17.276-38.759,38.759-38.759c21.262,0,38.759,17.276,38.759,38.759v115.696c26.872,0.202,53.119,3.798,78.847,11.646
					v-122.913c0-81.284,65.78-146.842,146.842-146.842s146.842,65.558,146.842,146.842v133.46
					c26.712-1.406,52.68-7.757,78.845-13.089v-124.801c0-21.484,17.499-38.759,38.759-38.759c21.484,0,38.759,17.276,38.759,38.759
					V1690.528z M418.729,1373.361c-7.53,1.107-15.061,2.436-22.591,3.765v-13.067c0-6.201,5.094-11.295,11.296-11.295
					s11.296,5.094,11.296,11.295V1373.361z M467.233,1366.273c-7.309,0.886-14.839,1.993-22.37,3.101v-15.504
					c0-5.98,5.094-11.074,11.296-11.074s11.074,5.094,11.074,11.074V1366.273z M515.959,1360.958
					c-7.309,0.664-14.839,1.329-22.37,2.215v-17.054c0-6.201,5.094-11.074,11.296-11.074s11.074,4.873,11.074,11.074V1360.958z
					 M564.685,1357.193c-7.53,0.443-14.839,0.886-22.37,1.55v-18.161c0-6.202,5.094-11.074,11.074-11.074
					c6.201,0,11.296,4.873,11.296,11.074V1357.193z M613.411,1355.199c-6.202,0.221-12.182,0.221-18.383,0.664h-3.987v-18.604
					c0-6.202,4.873-11.074,11.074-11.074s11.296,4.873,11.296,11.074V1355.199z M539.215,1073.475
					c-3.322,7.973-6.201,15.947-8.638,24.141c-1.993,5.759-3.544,11.739-5.094,17.719c-1.55,5.759-3.101,11.739-4.208,17.719
					c-0.886,3.544-1.55,7.087-1.993,10.631c-1.107,5.094-1.993,10.188-2.658,15.282c-0.886,5.537-1.772,11.074-2.215,16.611
					c-1.993,15.504-3.101,30.564-3.544,44.961c0,3.322-0.221,6.644-0.221,9.745c-0.221,3.101-0.221,6.201-0.221,9.302v53.377
					c-17.94,2.658-36.102,5.98-54.263,9.524v-46.733c0.221-23.255,1.772-49.833,6.645-76.854c2.215-13.51,5.315-27.242,9.524-40.753
					c3.987-13.51,8.859-27.021,15.061-39.645c25.249-53.599,108.747-107.861,146.178-134.439
					C597.686,994.185,555.383,1033.83,539.215,1073.475z M662.137,1354.535h-22.591v-18.383c0-6.202,5.094-11.074,11.296-11.074
					s11.296,4.873,11.296,11.074V1354.535z M710.641,1355.864h-3.987c-6.201-0.443-12.181-0.443-18.383-0.664v-17.94
					c0-6.202,5.094-11.074,11.296-11.074s11.074,4.873,11.074,11.074V1355.864z M759.367,1358.743
					c-7.528-0.665-14.839-1.107-22.37-1.55v-16.611c0-6.202,5.094-11.074,11.296-11.074c5.978,0,11.074,4.873,11.074,11.074
					V1358.743z M808.093,1363.173c-7.53-0.886-15.063-1.55-22.367-2.215v-14.839c0-6.201,4.873-11.074,11.074-11.074
					c6.199,0,11.293,4.873,11.293,11.074V1363.173z M856.818,1369.374c-7.53-1.107-15.061-2.215-22.37-3.101v-12.403
					c0-5.98,4.873-11.074,11.074-11.074c6.204,0,11.295,5.094,11.295,11.074V1369.374z M905.544,1377.126
					c-7.532-1.329-15.058-2.658-22.591-3.765v-9.302c0-6.201,5.094-11.295,11.296-11.295c6.201,0,11.295,5.094,11.295,11.295
					V1377.126z"/>
			</g>
			<g>
				<path fill="#FFFFFF" d="M296.345,1294.514h-31.007v-180.507h0.664c5.094,0,9.081-4.208,9.081-9.302v-2.879
					c0-4.651,1.772-9.081,4.873-12.403l8.638-9.302c1.772-1.772,2.658-4.208,2.658-6.644v-16.39c0-2.658-2.215-4.651-4.651-4.651
					h-28.128V915.338h5.094v-18.604c0-1.993-2.215-3.765-5.98-5.316c-1.772-8.638-6.866-16.168-13.732-21.041
					c10.41-10.853,21.262-24.363,22.148-35.215c1.329-17.497-9.302-24.141-20.598-31.45c-9.081-6.201-14.396-11.96-17.497-16.39
					c1.329-1.107,2.215-2.879,2.215-4.651c0-2.879-1.993-5.316-4.651-5.98c0-1.107-0.221-2.215-0.221-3.322
					c1.772-0.664,3.101-2.436,3.101-4.43c0-2.215-1.55-4.208-3.765-4.651v-3.322c1.55-0.221,2.879-1.772,2.879-3.544
					c0-1.772-1.329-3.322-3.101-3.544c-0.221-3.987-0.443-7.309-0.443-9.302h-0.443c0,1.993-0.221,5.316-0.221,9.302
					c-1.772,0.221-3.101,1.772-3.101,3.544c0,1.772,1.107,3.322,2.879,3.544c-0.221,1.107-0.221,2.215-0.221,3.322
					c-2.215,0.443-3.765,2.436-3.765,4.651c0,1.993,1.329,3.765,3.322,4.43c-0.221,1.107-0.221,2.215-0.443,3.322
					c-2.658,0.665-4.651,3.101-4.651,5.98c0,1.772,0.886,3.544,2.215,4.651c-2.879,4.43-8.195,10.188-17.497,16.39
					c-11.074,7.309-21.927,13.953-20.376,31.45c0.664,10.853,11.517,24.363,21.927,35.215c-7.087,5.094-12.181,12.625-13.732,21.484
					c-3.101,1.55-4.873,3.101-4.873,4.873v18.604h4.208v137.097H161.02c-2.658,0-4.873,1.993-4.873,4.651v16.39
					c0,2.436,0.886,4.873,2.658,6.644l8.859,9.302c2.879,3.322,4.651,7.752,4.651,12.403v2.879c0,5.094,4.208,9.302,9.302,9.302
					h0.443v180.507h-31.007c-2.879,0-5.316,2.436-5.316,5.315v19.047c0,2.879,1.107,5.537,2.879,7.752l10.188,10.853
					c3.544,3.765,5.537,8.859,5.537,14.175v3.322c0,5.758,4.43,10.188,9.967,10.631v220.649
					c20.816,5.454,36.559,22.026,55.085,32.074c11.112,6.027,22.432,11.578,33.373,17.941c3.53,2.053,7.04,4.14,10.543,6.239
					v-276.904c5.315-0.443,9.745-4.873,9.745-10.631v-3.322c0-5.316,1.993-10.41,5.537-14.175l10.188-10.853
					c1.993-2.215,2.879-4.873,2.879-7.752v-19.047C301.66,1296.95,299.224,1294.514,296.345,1294.514z"/>
			</g>
		</g>
		<g>
			<path fill="#FFFFFF" d="M752.27,165.646c-35.195,0-69.872,2.207-103.918,6.446c1.669-0.011,3.33-0.064,5.001-0.064
				c429.992,0,778.57,348.578,778.57,778.57s-348.578,778.57-778.57,778.57c-249.214,0-471.066-117.104-613.571-299.273
				c146.013,240.617,410.474,401.38,712.488,401.38c459.951,0,832.815-372.863,832.815-832.815S1212.222,165.646,752.27,165.646z"/>
			<path fill="#39B54A" d="M1713.65,912.772c0-490.166-397.359-887.524-887.525-887.524c-278.886,0-527.681,128.671-690.387,329.843
				c158.777-149.118,372.415-240.499,607.424-240.499c490.166,0,887.525,397.358,887.525,887.524
				c0,211.281-73.874,405.278-197.139,557.682C1605.938,1397.897,1713.65,1167.929,1713.65,912.772z"/>
		</g>
	</g>
	<g display="none">
		
			<rect x="-95.442" y="1937.116" display="inline" fill-rule="evenodd" clip-rule="evenodd" fill="none" width="1848.316" height="156.396"/>
		
			<text transform="matrix(1 0 0 1 -10.9105 2092.8767)" display="inline" fill="#006838" font-family="'MCSALMAALIMHIGH'" font-size="177"> زعت داشرلاو فاقولا بتكم</text>
		<g>
			<line display="inline" fill="none" stroke="#39B54A" stroke-width="10" x1="176.064" y1="2018.641" x2="-95.312" y2="2018.641"/>
			
				<line display="inline" fill="none" stroke="#39B54A" stroke-width="10" x1="1751.396" y1="2018.641" x2="1480.019" y2="2018.641"/>
		</g>
	</g>
</g>
</svg>
